<?xml version="1.0" encoding="utf-8"?>
<svg xmlns="http://www.w3.org/2000/svg" width="1024" height="1024" viewBox="0 0 1024 1024">
  <path fill="#FDFDFD" d="M0 0L1024 0L1024 1024L0 1024L0 0Z"/>
  <path fill="#174165" d="M239.376 789.506C239.095 789.338 238.811 789.172 238.532 789.001C231.689 784.803 226.57 779.277 224.772 771.223C223.372 764.956 223.968 757.892 223.977 751.51L224.023 723.411L224.015 605.377L223.911 302.605L223.935 189.715C223.983 176.085 223.581 162.4 223.914 148.779C224.055 142.998 225.006 138.329 228.264 133.396C232.089 127.509 238.159 123.447 245.059 122.157C250.474 121.109 256.278 121.54 261.777 121.56L286.073 121.641L371.92 121.602L547.568 121.554L597.697 121.558C617.476 121.56 636.924 121.542 656.554 124.323C686.381 128.549 715.846 137.224 741.017 154.221C778.242 179.357 801.186 217.465 809.603 261.247C816.766 298.504 810.912 341.212 794.238 375.247C789.924 384.052 784.258 392.369 778.755 400.47L777.369 402.099C767.643 413.43 757.574 424.404 745.419 433.205L744.987 433.648C744.964 439.251 745.049 444.879 744.911 450.478L745.986 450.972C749.305 453.139 752.594 455.431 756.01 457.44L758.576 459.202C771.855 469.419 787.278 480.829 796.56 495.035L797.437 496.159C805.596 508.154 812.418 519.835 818.153 533.196L818.648 534.491C822.668 545.956 827.268 558.219 828.704 570.341L828.91 570.667C832.245 595.74 832.593 620.193 827.814 645.093L827.724 645.403C824.844 656.529 821.762 667.496 817.378 678.139C804.255 709.997 780.958 736.296 752.517 755.298C750.27 756.503 748.135 757.825 745.99 759.197C730.271 767.77 713.642 775.81 696.449 780.957C686.45 783.95 676.175 785.944 666.053 788.454C679.512 788.518 693.01 788.736 706.465 788.423C711.436 787.919 716.485 788.028 721.478 787.982C721.415 784.933 720.754 775.449 722.099 773.253C722.565 778.18 722.511 783.119 722.297 788.06C730.376 788.065 739.005 787.506 747.011 788.426C760.616 788.988 774.412 788.553 788.037 788.563C806.953 788.587 825.869 788.723 844.783 788.973C851.745 789.003 870.696 787.998 876.491 789.35C876.802 790.734 876.783 791.66 876.634 793.044C876.322 793.174 876.023 793.34 875.698 793.435C873.386 794.119 853.315 793.403 848.949 793.379C815.056 793.004 781.161 792.817 747.265 792.817L158.14 793.568C153.968 793.569 142.269 795.033 139.373 792.432C138.757 791.879 138.904 791.656 138.839 790.904C139.886 789.933 140.531 789.63 141.97 789.47C145.146 789.119 148.651 789.433 151.865 789.432L172.642 789.424L239.376 789.506Z"/>
  <path fill="#FDFDFD" d="M731.458 443.275C735.901 439.99 740.51 436.894 744.987 433.648C744.964 439.251 745.049 444.879 744.911 450.478L731.458 443.275Z"/>
  <path fill="#E2E4E4" d="M721.478 787.982C721.415 784.933 720.754 775.449 722.099 773.253C722.565 778.18 722.511 783.119 722.297 788.06C730.376 788.065 739.005 787.506 747.011 788.426C733.725 789.185 719.777 788.657 706.465 788.423C711.436 787.919 716.485 788.028 721.478 787.982Z"/>
  <path fill="#B5C3CB" d="M244.448 126.851C249.617 124.937 311.829 126.064 323.428 126.076L494.454 126.143L584.507 125.997C603.242 125.998 622.209 125.432 640.891 127.065C666.618 129.313 692.532 134.766 716.076 145.611C754.956 163.52 782.806 193.781 797.585 233.989C813.469 277.207 811.02 328.414 791.655 370.162C780.26 394.727 761.942 415.817 740.1 431.675C734.328 435.866 727.607 439.115 722.044 443.457C731.971 449.341 742.461 453.96 752.183 460.289C787.145 483.047 811.027 516.847 821.342 557.184C832.766 601.859 828.058 655.074 804.234 695.038C776.137 742.169 731.325 767.816 679.199 780.802C661.879 785.022 644.186 787.534 626.375 788.3C604.597 789.302 582.499 788.552 560.68 788.534L439.672 788.477L316.893 788.508C296.124 788.475 274.984 789.198 254.261 788.127C249.458 787.878 244.565 787.236 240.279 784.88C239.631 784.524 238.749 783.979 238.284 783.416C234.31 780.917 231.482 777.149 230.049 772.688C227.504 764.763 228.839 707.11 228.827 693.65L228.814 493.399L228.737 245.892C228.777 213.36 228.042 180.669 228.744 148.154C228.83 144.203 229.165 140.646 231.048 137.071C233.871 131.709 238.828 128.621 244.448 126.851Z"/>
  <path fill="#FDFDFD" d="M244.448 126.851L244.438 127.476C238.252 131.851 233.845 135.132 232.563 143.117C231.405 150.322 232.026 158.453 232.028 165.78L231.975 205.507L232.151 367.963L232.067 627.897L232.12 719.281L231.997 752.478C231.977 758.387 231.707 764.432 232.083 770.327C232.456 776.172 236.281 778.53 238.284 783.416C234.31 780.917 231.482 777.149 230.049 772.688C227.504 764.763 228.839 707.11 228.827 693.65L228.814 493.399L228.737 245.892C228.777 213.36 228.042 180.669 228.744 148.154C228.83 144.203 229.165 140.646 231.048 137.071C233.871 131.709 238.828 128.621 244.448 126.851Z"/>
  <path fill="#174165" d="M261.276 140.75L504.289 140.613L588.553 140.518C606.45 140.5 624.585 139.77 642.408 141.51C664.131 143.632 685.695 148.367 705.784 157.036C739.983 171.795 768.031 201.37 781.681 235.888C797.318 276.169 796.288 321.016 778.819 360.537C764.354 393.517 737.747 419.104 705.812 435.209C696.426 439.943 686.532 443.609 676.751 447.43C688.176 450.218 699.455 452.756 710.516 456.827C747.331 470.377 780.521 497.676 797.059 533.746C815.546 575.024 817.197 621.886 801.658 664.362C795.299 680.222 787.31 694.688 776.244 707.799C742.843 747.371 690.029 766.2 639.649 770.425C618.911 772.164 597.888 771.402 577.085 771.39L473.106 771.231L330.199 771.039L280.125 770.982C272.361 770.995 264.464 771.472 256.716 771.132C253.889 771.009 250.44 770.543 248.252 768.566C246.126 766.645 246.235 762.536 246.11 759.799C245.665 750.075 245.997 740.203 245.994 730.461L245.984 674.866L245.966 510.609L245.953 245.127C245.968 213.846 245.321 182.48 245.687 151.21C245.717 148.675 245.562 145.265 247.462 143.358C250.894 139.913 256.814 140.724 261.276 140.75Z"/>
  <path fill="#FDFDFD" d="M250.019 151.679C249.995 149.78 249.703 147.709 250.712 146.025C252.288 144.963 253.658 144.98 255.542 144.93C275.541 144.398 295.725 145.008 315.738 145.021L439.769 145.027L560.325 144.977C581.92 144.968 603.668 144.433 625.249 145.091C639.154 145.653 653 147.233 666.674 149.819C705.409 157.343 740.613 177.107 763.079 210.3C785.463 243.373 793.036 285.923 785.356 324.985C777.608 364.387 755.861 397.828 722.374 420.128C706.557 430.662 688.747 438.991 670.684 444.874C668.688 445.524 666.611 445.667 666.103 447.976C667.672 450.23 670.408 450.621 672.99 451.078C716.66 458.795 755.75 479.726 781.845 516.281C805.65 549.626 811.844 595.426 805.072 635.183C798.717 673.701 777.018 707.997 744.932 730.233C704.914 758.562 653.969 767.981 605.771 766.463C596.449 766.795 587.02 766.476 577.683 766.466L522.853 766.412L359.941 766.401L357.628 766.311C357.426 766.333 357.224 766.361 357.022 766.378C351.792 766.816 346.274 766.499 341.018 766.511L307.326 766.517L272.84 766.472C266.745 766.46 260.496 766.757 254.425 766.268C253.324 766.179 251.901 766.105 251.087 765.272C249.318 763.462 249.879 760.228 249.935 757.893C249.609 749.948 249.857 741.885 249.848 733.928L249.814 688.536L249.856 550.86L250.019 151.679Z"/>
  <path fill="#174165" d="M442.574 514.908L443.023 514.048C447.504 513.139 452.904 513.738 457.498 513.731L488.449 513.677L564.19 513.834C577.028 513.872 590.772 512.782 603.493 514.543C614.138 515.958 624.318 519.791 633.253 525.748C649.456 536.493 661.178 554.435 664.839 573.486C668.548 592.787 665.178 612.941 654.043 629.325C649.003 636.74 642.484 643.058 635.255 648.32C627.029 653.412 618.656 658.104 609.037 659.89C595.184 662.462 570.924 660.964 555.894 660.955L442.483 660.79C442.343 612.167 443.081 563.527 442.574 514.908Z"/>
  <path fill="#B5C3CB" d="M446.982 518.131L545.998 518.296L576.934 518.285C587.29 518.296 597.779 517.875 607.96 520.079C619.911 522.656 630.94 528.422 639.877 536.765C653.311 549.452 661.228 568.393 661.753 586.761C662.303 606.004 655.41 622.64 642.239 636.483C633.312 644.9 623.18 651.866 611.12 654.826C597.299 658.219 565.926 656.593 550.134 656.564L446.948 656.361L446.982 518.131Z"/>
  <path fill="#174165" d="M462.168 534.157L554.543 534.066C568.608 534.087 593.254 532.777 606.144 535.66C614.502 537.53 622.165 542.331 628.407 548.093C639.051 557.919 645.368 571.182 645.916 585.68C646.499 601.12 641.099 615.011 630.652 626.297C630.525 626.424 630.401 626.552 630.272 626.676C623.174 633.481 614.248 637.813 604.643 639.766C591.091 642.521 566.225 641.103 551.76 641.071C521.839 641.106 491.918 640.933 462 640.553L462.168 534.157Z"/>
  <path fill="#FDFDFD" d="M466.56 538.648C475.176 538.414 510.09 537.513 516.077 538.963C517.676 538.229 588.332 538.191 596.373 538.773C600.799 539.093 605.067 539.839 609.236 541.391C621.769 546.056 632.051 556.086 637.564 568.208C642.827 579.781 643.015 593.708 638.513 605.564C634.188 616.954 625.346 627.066 614.112 631.99C609.108 634.183 604.11 635.334 598.68 635.846C581.296 637.486 563.177 636.379 545.684 636.38C523.804 636.382 501.616 637.166 479.77 636.398C475.465 636.614 471.15 636.519 466.859 636.114C467.197 603.66 466.571 571.115 466.56 538.648Z"/>
  <path fill="#B5C3CB" d="M466.56 538.648C475.176 538.414 510.09 537.513 516.077 538.963L469.967 539.043C470.068 547.747 470.086 556.452 470.022 565.156L470.018 565.95C469.8 572.531 468.81 594.159 470.32 599.316L469.976 600.018C469.45 611.931 469.945 624.025 469.947 635.958C473.174 635.982 476.599 635.797 479.77 636.398C475.465 636.614 471.15 636.519 466.859 636.114C467.197 603.66 466.571 571.115 466.56 538.648Z"/>
  <path fill="#B5C3CB" d="M470.022 565.156C472.059 565.108 476.684 564.372 478.185 565.711L479.106 565.549C478.42 565.473 477.661 565.789 476.995 565.962L477.304 565.99C474.875 566.05 472.445 566.037 470.018 565.95L470.022 565.156Z"/>
  <path fill="#B5C3CB" d="M470.32 599.316C473.166 598.674 475.48 598.504 478.347 599.169C475.617 599.525 472.614 599.296 469.976 600.018L470.32 599.316Z"/>
  <path fill="#E2E4E4" d="M481.103 632.792C483.359 632.061 503.846 632.402 507.434 632.577L507.87 633.236C504.459 634.421 493.233 633.607 488.807 633.58C486.93 633.568 482.319 634.023 481.103 632.792Z"/>
  <path fill="#B5C3CB" d="M532.802 632.756C532.901 632.729 532.998 632.69 533.1 632.674C536.255 632.197 544.149 631.662 546.786 633.245C542.266 633.17 537.8 633.64 533.256 633.434L532.802 632.756Z"/>
  <path fill="#E2E4E4" d="M610.009 565.246C612.962 564.65 620.231 564.174 622.779 565.757C618.765 566.13 614.611 565.967 610.583 565.923L610.009 565.246Z"/>
  <path fill="#B5C3CB" d="M484.888 565.24C486.675 565.919 491.737 565.153 493.997 565.262L493.712 565.737C493.233 565.874 493.122 565.921 492.559 565.996C490.386 566.285 486.685 566.56 484.888 565.24Z"/>
  <path fill="#B5C3CB" d="M574.127 565.137C575.606 565.129 579.711 565.077 580.767 565.991L579.601 566.135C577.199 566.143 574.853 566.066 572.457 565.899L572.415 565.499L574.127 565.137Z"/>
  <path fill="#E2E4E4" d="M593.968 564.917L593.256 565.811C590.814 566.231 588.239 566.029 585.767 565.997L585.676 565.322C588.003 565.783 591.756 565.777 593.968 564.917Z"/>
  <path fill="#E2E4E4" d="M626.477 565.227C626.669 565.178 626.857 565.116 627.051 565.079C628.757 564.758 630.825 564.698 632.321 565.653C630.593 565.698 627.843 566.234 626.477 565.227Z"/>
  <path fill="#E2E4E4" d="M515.301 631.726C516.307 632.106 517.448 632.103 518.516 632.204L518.703 632.901C517.531 632.811 516.379 632.838 515.204 632.853L515.301 631.726Z"/>
  <path fill="#E2E4E4" d="M250.019 151.679C249.995 149.78 249.703 147.709 250.712 146.025C252.288 144.963 253.658 144.98 255.542 144.93C275.541 144.398 295.725 145.008 315.738 145.021L439.769 145.027L560.325 144.977C581.92 144.968 603.668 144.433 625.249 145.091C639.154 145.653 653 147.233 666.674 149.819C705.409 157.343 740.613 177.107 763.079 210.3C785.463 243.373 793.036 285.923 785.356 324.985C777.608 364.387 755.861 397.828 722.374 420.128C706.557 430.662 688.747 438.991 670.684 444.874C668.688 445.524 666.611 445.667 666.103 447.976C667.672 450.23 670.408 450.621 672.99 451.078C716.66 458.795 755.75 479.726 781.845 516.281C805.65 549.626 811.844 595.426 805.072 635.183C798.717 673.701 777.018 707.997 744.932 730.233C704.914 758.562 653.969 767.981 605.771 766.463C608.46 763.924 626.083 763.277 630.573 762.465C664.484 756.33 693.485 745.527 719.691 722.39C728.31 714.78 736.133 706.472 742.683 696.99C766.918 661.973 776.181 618.734 768.417 576.863C759.603 528.446 725.982 489.741 684.123 465.805C676.572 461.488 668.638 457.535 660.768 453.828C656.895 452.004 652.254 450.689 648.755 448.263C648.996 448.25 649.239 448.242 649.48 448.226C649.82 448.203 650.159 448.167 650.5 448.145C651.991 448.046 652.776 447.918 654.04 447.05C658.863 443.738 664.359 441.313 669.387 438.289C681.939 430.738 694.631 421.337 705.034 411.002C734.395 381.836 751.328 343.249 751.425 301.751C751.516 262.644 738.014 222.789 710.171 194.803C689.258 173.782 667.214 162.807 638.534 156.463C618.822 152.102 599.139 152.094 579.058 151.942L520.166 151.78L250.019 151.679Z"/>
  <path fill="#174165" d="M326.248 549.051C322.413 549.018 312.636 549.668 309.75 546.884C309.205 546.359 309.298 545.486 309.42 544.792C310.326 539.661 322.228 519.223 326.598 517.08C327.255 516.758 327.98 516.392 328.701 516.68C332.316 518.12 347.064 539.981 347.803 543.53C348.034 544.642 347.806 545.673 346.98 546.479C343.663 549.72 333.527 549.015 328.965 549.079C328.9 563.851 328.913 578.624 329.003 593.396C338.871 589.205 347.755 587.411 358.376 586.551C359.25 586.606 360.094 586.727 360.96 586.582C378.684 586.367 397.634 596.218 410.082 608.313C418.465 616.457 424.34 626.021 428.317 636.959C430.759 646.562 432.335 655.912 431.297 665.871C428.518 686.211 419.422 703.827 402.932 716.402C390.109 726.18 375.829 730.718 360.002 732.515L359.941 766.401L357.628 766.311C357.597 761.778 357.807 757.246 357.757 752.707C358.455 746.097 357.816 738.947 357.628 732.307C351.908 731.878 346.235 731.167 340.675 729.719C321.967 724.818 305.949 712.732 296.104 696.086C286.476 679.644 284.055 658.583 289.013 640.265C294.607 619.594 307.975 605.003 326.204 594.479L326.248 549.051Z"/>
  <path fill="#FDFDFD" d="M352.387 589.345C391.099 585.653 425.474 614.045 429.162 652.758C432.851 691.47 404.457 725.843 365.744 729.528C327.035 733.213 292.667 704.823 288.979 666.115C285.291 627.406 313.678 593.036 352.387 589.345Z"/>
  <path fill="#174165" d="M352.424 602.24C383.881 598.588 412.346 621.118 416.016 652.572C419.687 684.026 397.174 712.505 365.722 716.194C334.243 719.886 305.736 697.35 302.063 665.869C298.389 634.389 320.942 605.895 352.424 602.24Z"/>
  <path fill="#FDFDFD" d="M354.936 603.811C385.55 601.518 412.226 624.478 414.516 655.093C416.806 685.707 393.842 712.381 363.228 714.667C332.618 716.953 305.95 693.994 303.661 663.384C301.371 632.775 324.327 606.105 354.936 603.811Z"/>
  <path fill="#174165" d="M355.709 609.506C357.723 609.36 359.216 609.124 360.874 610.419C361.309 611.466 361.444 612.141 361.352 613.251C361.2 615.106 361.234 616.936 361.256 618.796C366.752 619.527 371.715 620.971 376.905 622.907C377.375 621.914 377.86 620.928 378.359 619.949C379.298 618.122 380.475 616.406 382.561 615.818C383.704 615.496 383.875 615.522 384.869 616.043C385.182 616.793 385.23 616.721 385.299 617.379C385.655 620.789 383.399 622.878 381.405 625.325C386.033 628.52 389.471 631.53 392.956 635.945C394.436 635.016 395.975 633.948 397.605 633.301C399.108 632.705 400.274 632.954 401.725 633.606C402.324 634.582 402.576 634.97 402.105 636.165C401.151 638.582 398.254 639.592 396.048 640.426C398.12 645.543 399.96 650.902 400.703 656.39C402.527 656.327 405.033 655.984 406.795 656.43C408.42 656.841 409.348 657.515 410.126 658.977C409.979 659.373 409.913 659.645 409.592 659.978C407.305 662.352 403.603 661.792 400.634 661.703C400.392 667.351 398.657 672.258 396.469 677.41C397.901 678.151 399.373 678.902 400.714 679.798C402.143 680.754 402.647 681.73 402.957 683.428C402.493 684.64 402.459 684.604 401.31 685.227C398.26 685.354 396.526 683.862 394.163 682.134C390.436 686.927 386.69 690.395 381.862 694.081C383.892 696.073 386.985 698.732 386.632 701.887C386.487 703.186 386.123 703.492 385.142 704.147C384.39 704.153 383.724 704.144 383.017 703.847C379.888 702.533 378.917 699.221 377.623 696.358C377.091 696.589 376.556 696.805 376.023 697.031C371.707 698.858 367.222 699.816 362.675 700.88C362.597 701.019 362.503 701.151 362.443 701.299C361.912 702.601 361.909 704.953 362.436 706.264C363.191 708.143 363.336 708.511 362.77 710.45C362.041 710.903 361.227 711.466 360.413 711.737C359.111 712.171 358.204 711.856 357.025 711.325C355.019 708.729 357.003 704.394 356.97 701.334L356.956 700.663C350.933 700.447 345.399 698.705 339.862 696.457C339.311 698.013 338.768 700.305 337.578 701.513C336.617 702.488 335.729 702.638 334.426 702.674C333.385 702.177 332.661 701.918 332.275 700.694C331.592 698.532 334.805 695.437 336.025 693.712C331.309 690.568 327.309 686.339 323.867 681.875C322.894 682.92 321.798 684.292 320.506 684.942C318.903 685.748 317.864 685.767 316.215 685.139C315.353 684.089 315.385 683.945 315.289 682.576C316.448 679.56 318.618 678.803 321.319 677.447C318.927 672.276 317.695 667.662 316.913 662.022C314.652 662.424 312.314 662.848 310.201 661.685C309.041 661.047 308.7 660.219 308.283 659.042C308.668 658.118 308.643 657.82 309.496 657.212C311.473 655.804 314.312 656.692 316.542 657.058C317.576 651.483 319.034 646.666 321.395 641.51C319.518 640.495 316.958 639.322 316.094 637.253C315.581 636.027 315.706 635.236 316.161 634.043C316.88 633.5 317.136 633.135 318.079 633.04C320.764 632.77 322.556 634.958 324.391 636.606C328.126 632.437 331.75 628.765 336.405 625.628C335.087 623.503 333.09 620.993 333.085 618.394C333.082 617.131 333.429 616.402 334.262 615.516C335.123 615.428 335.457 615.54 336.259 615.951C338.786 617.248 339.544 620.6 340.461 623.074C345.259 620.87 349.959 619.723 355.14 618.771C355.127 615.67 354.85 612.513 355.709 609.506Z"/>
  <path fill="#FDFDFD" d="M356.917 623.411C377.14 622.313 394.382 637.909 395.311 658.14C396.239 678.372 380.499 695.482 360.26 696.241C340.26 696.991 323.396 681.476 322.478 661.484C321.561 641.491 336.933 624.497 356.917 623.411Z"/>
  <path fill="#174165" d="M354.92 634.246C364.23 632.81 373.593 636.493 379.43 643.886C385.268 651.279 386.679 661.24 383.124 669.964C379.569 678.687 371.597 684.824 362.254 686.031C348.054 687.864 335.019 677.938 333.011 663.761C331.003 649.584 340.769 636.428 354.92 634.246Z"/>
  <path fill="#FDFDFD" d="M355.486 636.565C368.566 634.666 380.703 643.746 382.573 656.83C384.442 669.914 375.334 682.031 362.246 683.871C349.2 685.705 337.131 676.632 335.267 663.59C333.403 650.548 342.448 638.458 355.486 636.565Z"/>
  <path fill="#FDFDFD" d="M327.403 519.204C332.849 521.856 342.506 538.956 345.383 544.626C340.429 546.206 335.759 546.37 330.584 546.424C324.296 546.439 318.237 546.325 312.031 545.216C315.326 536.294 321.191 526.445 327.403 519.204Z"/>
  <path fill="#174165" d="M359.036 379.007C359.113 380.796 358.863 381.718 359.999 383.143C361.513 383.839 362.433 383.788 364.079 383.711C365.691 383.636 367.305 383.713 368.917 383.761C369.605 388.548 370.378 393.236 371.476 397.952C376.53 399.326 381.066 400.674 385.581 403.363C389.444 400.065 393.369 396.821 396.998 393.261C400.85 396.675 404.542 400.265 408.062 404.021C404.65 407.878 402.334 412.498 398.949 416.318C401.569 421.252 403.445 425.887 404.831 431.297C409.604 432.022 414.382 432.72 419.163 433.391L419.045 449.399C414.351 449.615 409.675 450.131 405.046 450.943C403.375 455.624 401.73 460.298 399.03 464.503C401.598 468.31 404.198 472.095 406.83 475.858C403.057 479.592 399.215 483.255 395.304 486.844C392.009 484.03 388.565 481.296 385.437 478.3C380.633 480.632 375.864 482.645 370.841 484.442C370.02 488.79 369.513 493.207 368.635 497.536C366.124 497.476 363.572 497.312 361.065 497.441C360.317 497.851 359.327 498.247 358.716 498.832L358.487 498.04C357.263 496.96 355.592 497.182 354.001 497.095C351.712 495.165 351.828 488.118 351.387 485.071C346.268 483.249 341.423 480.867 336.684 478.224C332.837 480.911 329.155 483.826 325.657 486.954C321.997 483.324 318.396 479.73 315.083 475.772C317.844 472.084 320.372 468.303 322.871 464.437C320.38 459.778 318.632 454.907 316.819 449.961C312.036 448.946 307.194 448.045 302.304 447.815C302.262 442.63 302.276 437.445 302.345 432.26C307.123 431.937 311.876 431.317 316.577 430.404C317.917 425.065 320.29 421.126 323.396 416.656C320.159 412.535 317.527 408.042 314.023 404.108C317.541 400.698 321.254 397.48 324.784 394.069C328.19 397.186 331.777 400.061 335.369 402.958C340.394 401.548 345.329 399.458 350.225 397.642C351.058 393.25 350.932 388.571 352.696 384.432C353.995 383.328 354.516 383.562 356.18 383.526L357.6 382.709C357.9 381.693 358.195 380.749 358.654 379.792L359.036 379.007Z"/>
  <path fill="#8DC3A3" d="M354.612 385.997L366.477 386.056C367.242 390.718 368.061 395.372 368.933 400.015C375.223 401.4 379.853 402.829 385.002 406.854C389.177 403.915 393.046 400.249 396.937 396.926L404.745 404.097C401.742 408.201 398.56 412.113 395.316 416.026C399.078 421.771 401.085 427.214 402.946 433.769C407.501 434.43 412.06 435.06 416.623 435.659L416.657 446.932C412.222 447.468 407.776 447.645 403.402 448.62C401.418 454.118 399.055 459 396.128 464.069C398.219 468.072 400.904 471.879 403.32 475.699C400.678 478.258 397.986 480.686 395.163 483.044C391.738 480.633 388.645 477.815 385.506 475.051C380.171 478.395 374.5 480.257 368.657 482.475C367.424 486.41 367.312 490.69 366.621 494.753L355.159 494.534C354.442 490.587 354.221 486.485 353.83 482.49L353.103 482.354C346.908 481.223 341.603 478.169 336.606 474.446C333.102 477.583 329.535 480.523 325.781 483.357L318.293 476.251C321.153 472.308 324.005 468.386 326.602 464.261C322.499 458.968 320.821 453.491 318.969 447.189C314.293 446.621 309.698 445.968 305.075 445.039L304.984 435.129L318.471 433.328C320.61 426.994 322.708 421.837 326.907 416.552L317.562 404.066C320.133 402.152 322.557 399.972 325.011 397.907C328.552 400.522 331.847 403.654 335.169 406.554C341.299 404.62 347.003 401.492 353.203 399.611C353.405 395.07 354.09 390.512 354.612 385.997Z"/>
  <path fill="#174165" d="M356.562 411.651C372.759 409.124 387.939 420.199 390.476 436.394C393.013 452.589 381.946 467.776 365.752 470.322C349.546 472.87 334.344 461.792 331.805 445.584C329.267 429.376 340.353 414.181 356.562 411.651Z"/>
  <path fill="#FDFDFD" d="M360.247 413.996C375.131 413.486 387.621 425.116 388.174 439.998C388.726 454.88 377.134 467.404 362.253 468C347.311 468.599 334.724 456.948 334.168 442.004C333.613 427.06 345.301 414.507 360.247 413.996Z"/>
  <path fill="#174165" d="M357.912 421.11C368.981 419.282 379.425 426.809 381.192 437.888C382.96 448.967 375.377 459.369 364.289 461.077C353.285 462.772 342.979 455.26 341.225 444.265C339.471 433.271 346.927 422.924 357.912 421.11Z"/>
  <path fill="#FDFDFD" d="M359.489 423.656C369.124 422.657 377.725 429.709 378.635 439.353C379.545 448.998 372.415 457.534 362.762 458.355C353.234 459.166 344.833 452.148 343.934 442.627C343.036 433.107 349.977 424.641 359.489 423.656Z"/>
  <path fill="#E2E4E4" d="M428.953 528.297C433.603 523.66 438.463 520.178 442.574 514.908C443.081 563.527 442.343 612.167 442.483 660.79L555.894 660.955C570.924 660.964 595.184 662.462 609.037 659.89C618.656 658.104 627.029 653.412 635.255 648.32L636.104 648.582L637.724 647.617C637.189 650.303 630.609 655.629 628.219 657.196C621.337 661.707 611.372 664.747 603.227 665.779C595.823 666.718 587.385 666.285 579.905 666.299L532.842 666.03C499.022 665.825 465.111 666.728 431.297 665.871C432.335 655.912 430.759 646.562 428.317 636.959C430.425 633.503 428.966 541.067 428.953 528.297Z"/>
  <path fill="#E2E4E4" d="M249.935 757.893C255.493 756.39 270.391 757.434 276.487 758.279C277.066 757.832 277.645 757.401 278.239 756.975C278.449 757.18 278.672 757.371 278.868 757.589C279.093 757.841 279.29 758.117 279.501 758.381C279.692 758.28 279.881 758.177 280.073 758.079C280.313 757.956 280.557 757.841 280.796 757.718C282.574 756.797 300.071 757.764 303.973 757.242C304.239 757.206 304.504 757.165 304.769 757.127L305.251 758.359C306.815 758.682 306.3 757.43 307.831 757.266L308.264 758.49L310.97 757.592L311.171 759.31L311.92 759.452C312.455 758.95 313.469 757.702 314.078 757.427C315.762 756.666 325.853 757.823 328.285 757.91C333.034 758.08 354.445 758.653 357.342 756.27C357.356 755.37 357.427 754.535 357.585 753.651L357.757 752.707C357.807 757.246 357.597 761.778 357.628 766.311C357.426 766.333 357.224 766.361 357.022 766.378C351.792 766.816 346.274 766.499 341.018 766.511L307.326 766.517L272.84 766.472C266.745 766.46 260.496 766.757 254.425 766.268C253.324 766.179 251.901 766.105 251.087 765.272C249.318 763.462 249.879 760.228 249.935 757.893Z"/>
  <path fill="#174165" d="M358.716 498.832C359.327 498.247 360.317 497.851 361.065 497.441C360.659 527.079 360.352 556.949 360.96 586.582C360.094 586.727 359.25 586.606 358.376 586.551L358.396 530.051C358.406 519.726 357.881 509.108 358.716 498.832Z"/>
  <path fill="#174165" d="M356.18 383.526C355.288 369.806 356.098 355.561 356.14 341.803C356.164 333.701 355.37 323.39 356.043 315.536C356.118 314.658 356.453 313.942 356.819 313.154L358.322 312.843L357.375 312.568L358.424 313.044C359.668 316.319 359.329 370.773 359.036 379.007L358.654 379.792C358.195 380.749 357.9 381.693 357.6 382.709L356.18 383.526Z"/>
  <path fill="#174165" d="M445.161 258.007C445.155 256.529 444.881 254.48 445.719 253.238C451.89 252.352 458.715 252.984 464.969 252.989L504.198 253.001L558.254 252.928C569.473 252.905 581.511 251.961 592.577 253.868C602.265 255.613 611.408 259.609 619.269 265.534C632.996 275.913 642.028 290.663 644.306 307.768C644.453 308.905 644.556 310.047 644.615 311.192C645.932 315.732 646.636 319.733 646.62 324.472C646.552 345.708 644.009 363.724 628.171 379.308C620.275 387.076 608.95 393.717 598.108 396.176C587.093 398.675 575.568 397.9 564.353 397.791L535.994 397.684L431.176 397.474C430.22 379.86 431.001 361.787 430.993 344.127L430.473 258.17L445.161 258.007Z"/>
  <path fill="#E2E4E4" d="M430.473 258.17L445.161 258.007L445.091 390.008L540.456 390.169C555.62 390.198 581.747 391.693 595.674 388.651C607.581 385.961 618.5 380 627.203 371.44C639.085 359.686 644.919 343.213 644.889 326.659C644.834 321.503 644.742 316.347 644.615 311.192C645.932 315.732 646.636 319.733 646.62 324.472C646.552 345.708 644.009 363.724 628.171 379.308C620.275 387.076 608.95 393.717 598.108 396.176C587.093 398.675 575.568 397.9 564.353 397.791L535.994 397.684L431.176 397.474C430.22 379.86 431.001 361.787 430.993 344.127L430.473 258.17Z"/>
  <path fill="#B5C3CB" d="M449.317 257.207C480.346 257.816 511.477 257.333 542.514 257.251C557.459 257.211 580.601 255.693 594.447 258.838C605.113 261.317 614.899 266.665 622.745 274.304C635.384 286.411 640.217 300.79 640.539 317.987C640.916 338.125 638.181 353.522 623.763 368.5C615.266 376.575 605.297 382.105 593.793 384.572C580.502 387.423 557.561 385.984 543.028 385.97L449.441 385.625L449.317 257.207Z"/>
  <path fill="#174165" d="M467.117 272.243C492.175 272.001 517.257 272.358 542.318 272.302C555.867 272.272 577.724 270.832 590.159 273.33C598.267 274.959 606.41 278.752 612.359 284.569C622.505 294.49 624.923 306.306 625.032 319.991C625.156 335.583 623.159 347.834 611.818 359.349C606.079 364.058 599.565 367.635 592.248 369.185C579.167 371.958 559.74 370.517 545.843 370.512L464.622 370.598C464.661 360.066 464.27 275.366 465.253 273.109C465.528 272.476 466.503 272.432 467.117 272.243Z"/>
  <path fill="#FDFDFD" d="M468.927 279.968C469.063 278.501 468.776 277.593 469.954 276.612C476.777 276.096 483.842 276.46 490.689 276.462L530.799 276.481L564.33 276.47C571.009 276.473 577.899 276.13 584.534 276.908C589.927 277.503 595.166 279.077 599.994 281.553C603.535 283.23 606.605 285.367 609.371 288.133C619.98 298.74 620.88 310.934 620.795 325.159C620.729 336.377 617.789 347.297 609.536 355.313C604.032 360.661 596.97 363.812 589.499 365.277C576.891 367.749 558.744 366.521 545.433 366.557C519.951 366.708 494.469 366.717 468.987 366.581L468.927 279.968Z"/>
  <path fill="#E2E4E4" d="M468.927 279.968C469.063 278.501 468.776 277.593 469.954 276.612C476.777 276.096 483.842 276.46 490.689 276.462L530.799 276.481L564.33 276.47C571.009 276.473 577.899 276.13 584.534 276.908C589.927 277.503 595.166 279.077 599.994 281.553C594.53 282.47 587.701 280.799 582.086 280.633C573.186 280.37 564.25 280.592 555.344 280.524C551.342 280.494 546.842 280.789 542.913 280.018L480.062 279.914C476.434 280.266 472.582 279.987 468.927 279.968Z"/>
  <path fill="#B5C3CB" d="M480.062 279.914C483.098 277.901 533.161 278.992 542.04 279.209C542.926 279.741 542.751 279.385 542.913 280.018L480.062 279.914Z"/>
  <path fill="#174165" d="M341.249 167.749C346.436 167.817 351.624 167.851 356.811 167.852C357.659 173.479 358.483 179.127 359.907 184.643C366.16 186.433 371.62 188.905 377.384 191.884C381.609 188.128 385.764 184.06 390.401 180.82C394.915 185.604 399.94 189.957 404.37 194.779C400.566 198.952 396.262 202.7 392.622 207.006C396.37 212.81 398.053 218.492 399.371 225.235C404.582 225.932 409.873 226.489 415.055 227.356C414.743 233.016 414.691 238.655 414.668 244.321C409.539 245.158 404.399 246.063 399.243 246.71C397.337 252.477 395.357 258.066 392.419 263.41C395.769 268.16 399.328 272.644 403.095 277.068C398.737 281.331 394.115 285.256 389.479 289.209C385.237 285.692 381.028 282.134 376.621 278.824C370.607 282.074 365.038 284.852 358.313 286.385C357.092 291.696 356.494 297.018 355.843 302.418L339.096 302.308C338.769 296.928 337.963 291.656 337.011 286.355C330.959 284.373 325.412 282.064 319.789 279.083C315.879 282.47 312.049 286.045 307.72 288.893C303.191 285.067 298.917 280.862 294.822 276.574C298.077 272.299 301.446 268.053 304.428 263.583C301.355 258.348 299.608 252.96 297.804 247.205C292.514 246.192 286.689 245.702 281.527 244.27L280.551 244.039C278.868 241.351 280.249 231.626 280.404 228.176C285.97 226.957 291.663 226.628 297.228 225.242C299.931 219.669 301.029 213.643 304.341 208.303C301.727 204.367 298.33 200.912 295.101 197.479C294.648 196.92 293.766 196.243 293.865 195.479C294.258 192.416 303.948 183.523 306.462 180.928C310.585 184.85 314.844 188.335 319.541 191.546C325.267 188.251 331.066 186.054 337.43 184.317C339.123 178.9 340.4 173.361 341.249 167.749Z"/>
  <path fill="#8DC3A3" d="M343.201 170.329C347.078 170.277 350.912 170.245 354.781 170.526C355.517 176.142 356.4 181.669 357.853 187.154C364.941 188.864 371.055 191.864 377.345 195.495C381.486 191.781 385.623 187.927 390.003 184.494C393.581 187.961 397.372 191.349 400.621 195.128C396.592 198.88 392.628 202.624 389.041 206.814C393.398 213.269 395.396 219.554 397.381 227.048C402.332 228.401 407.33 229.181 412.397 229.957C412.331 233.898 412.228 237.841 412.217 241.783C407.053 242.637 401.864 243.406 396.714 244.333C395.601 251.319 392.402 257.385 389.254 263.644C392.021 268.52 395.847 272.584 399.738 276.578C396.312 279.769 392.917 282.995 389.226 285.885C385.189 282.557 381.202 279.168 377.266 275.72C370.218 279.088 363.96 282.013 356.317 283.872C354.919 289.119 354.028 294.647 353.297 300.028L341.714 299.99C341.085 294.697 340.2 289.46 339.312 284.206C332.382 282.09 326.167 279.303 319.752 275.971C315.569 279.001 311.759 282.381 308.049 285.97C304.771 282.766 301.319 279.632 298.283 276.199C301.478 272.236 304.907 268.329 307.774 264.124C304.176 257.648 301.954 251.622 299.993 244.459C294.935 243.752 288.962 242.337 283.915 242.67C282.023 240.463 282.922 233.473 282.959 230.39C288.434 229.413 293.959 228.75 299.509 228.404C301.798 220.923 304.498 214.086 307.991 207.084C303.881 203.723 300.267 199.587 296.572 195.777C299.854 192.187 303.18 188.637 306.549 185.129C310.888 188.407 315.181 191.745 319.427 195.143C326.368 191.084 332.428 188.647 340.157 186.622C341.228 181.23 342.531 175.785 343.201 170.329Z"/>
  <path fill="#174165" d="M347.141 201.764C365.64 201.141 381.166 215.582 381.885 234.077C382.603 252.573 368.243 268.174 349.751 268.988C331.124 269.808 315.383 255.32 314.66 236.688C313.936 218.057 328.506 202.391 347.141 201.764Z"/>
  <path fill="#FDFDFD" d="M343.899 204.704C360.744 202.307 376.351 213.995 378.792 230.834C381.232 247.672 369.584 263.31 352.752 265.793C335.858 268.286 320.151 256.586 317.702 239.686C315.253 222.786 326.993 207.11 343.899 204.704Z"/>
  <path fill="#174165" d="M344.261 213.773C356.12 211.624 367.463 219.537 369.54 231.408C371.617 243.28 363.636 254.574 351.753 256.58C339.969 258.57 328.791 250.671 326.731 238.9C324.671 227.129 332.503 215.903 344.261 213.773Z"/>
  <path fill="#FDFDFD" d="M345.54 216.299C355.937 214.903 365.514 222.151 366.995 232.535C368.477 242.919 361.308 252.556 350.936 254.122C340.443 255.707 330.67 248.436 329.171 237.931C327.672 227.425 335.023 217.712 345.54 216.299Z"/>
  <path fill="#174165" d="M304.432 314.034C307.535 314.093 314.162 312.986 316.372 315.466C318.133 317.441 317.556 321.353 317.527 323.823C319.984 324.888 322.316 326.346 324.651 327.658C327.305 325.808 329.814 323.667 332.43 321.744C335.494 325.542 337.872 330.237 340.218 334.509C338.005 336.388 335.631 338.121 333.336 339.901C334.156 342.839 334.529 345.833 334.953 348.848L342.958 350.898C342.35 354.873 341.619 358.729 340.622 362.626C338.066 362.352 334.118 361.481 331.917 363.154C331.238 363.671 330.82 364.334 330.731 365.168C330.413 368.141 332.906 370.845 334.518 373.145C333.055 374.606 331.449 376.68 329.414 377.23C327.334 376.898 324.564 373.945 322.701 372.644C320.828 373.798 318.886 374.859 316.98 375.958C317.025 377.865 317.317 380.185 316.811 382.023C316.58 382.861 316.086 382.877 315.379 383.268C313.104 383.817 310.805 384.001 308.482 384.235C307.445 381.565 306.926 378.528 306.26 375.734C303.665 375.234 301.174 374.645 298.641 373.884C296.876 375.944 295.285 378.126 293.676 380.308C291.115 378.533 288.585 376.97 285.815 375.543C286.753 373.188 287.739 370.85 288.704 368.506C286.744 366.469 285.496 364.361 284.211 361.88C281.038 361.831 277.865 361.746 274.694 361.624C274.489 357.82 274.19 354.022 273.8 350.232C276.035 349.364 278.388 348.737 280.682 348.032C281.344 344.793 282.264 341.704 283.265 338.555L276.99 332.4C279.402 329.194 283.563 323.613 287.333 322.224C289.438 322.634 289.934 324.032 291.677 325.053C292.35 325.447 293.832 326.026 294.64 325.897C295.887 325.697 299.92 323.427 302.174 322.885C302.79 319.866 303.417 316.95 304.432 314.034Z"/>
  <path fill="#7FA5AD" d="M306.079 316.971L313.926 317.019C313.881 319.442 313.185 324.222 314.972 326.113C315.892 327.086 317.663 327.509 318.9 327.925C321.228 328.709 322.71 330.068 324.572 331.616C327.018 329.676 329.43 327.63 331.965 325.813C333.571 328.422 335.383 331.054 336.734 333.797C334.886 335.048 330.433 337.363 330.09 339.748C329.861 341.343 330.677 343.054 331.164 344.554C331.892 346.796 331.742 349.264 331.692 351.596C334.49 351.992 337.315 352.321 340.084 352.885L339.727 359.675C337.116 359.368 333.093 358.339 330.741 359.824C328.858 361.011 327.968 363.904 327.133 365.89C328.444 368.026 330.444 370.55 330.326 373.127C329.233 373.564 329.124 373.508 328.093 372.987C326.163 372.011 324.61 370.14 322.816 368.915C320.079 370.809 317.276 372.502 314.391 374.16C314.439 376.296 314.681 378.617 314.224 380.71C313.018 380.845 312.008 380.852 310.803 380.709C309.771 379.412 309.914 378.03 309.727 376.404C309.339 375.086 309.31 373.973 307.933 373.301C306.206 372.457 303.604 372.489 301.708 372.149C300.744 370.961 299.796 369.759 298.865 368.545C296.643 371.576 294.892 374.533 291.303 376.027L290.342 375.627C289.461 373.31 290.684 371.336 291.573 369.196C289.905 365.763 287.52 362.634 286.407 358.972L277.145 359.025L276.914 351.789L283.468 350.722L283.474 349.977C283.55 345.486 287.345 338.188 283.706 334.668C282.728 333.722 281.495 332.962 280.372 332.198C282.756 329.728 285.185 327.303 287.66 324.924C290.012 327.063 292.174 328.703 295.148 329.937C298.563 327.294 300.353 326.237 304.788 325.816C305.196 322.887 305.487 319.864 306.079 316.971Z"/>
  <path fill="#E2E4E4" d="M309.727 376.404L313.231 376.378C314.351 377.571 314.091 379.11 314.224 380.71C313.018 380.845 312.008 380.852 310.803 380.709C309.771 379.412 309.914 378.03 309.727 376.404Z"/>
  <path fill="#174165" d="M307.045 331.751C316.854 331.159 325.289 338.624 325.893 348.433C326.497 358.241 319.042 366.685 309.235 367.301C299.41 367.918 290.949 360.448 290.343 350.622C289.738 340.797 297.219 332.345 307.045 331.751Z"/>
  <path fill="#FDFDFD" d="M306.591 334.886C314.771 334.088 322.062 340.038 322.921 348.211C323.78 356.385 317.883 363.72 309.716 364.639C301.464 365.567 294.035 359.595 293.168 351.336C292.3 343.078 298.326 335.693 306.591 334.886Z"/>
  <path fill="#174165" d="M305.63 341.822C309.94 340.808 314.288 343.352 315.514 347.607C316.74 351.862 314.414 356.33 310.225 357.766C307.325 358.76 304.113 358.075 301.87 355.985C299.627 353.895 298.717 350.739 299.504 347.776C300.29 344.813 302.645 342.524 305.63 341.822Z"/>
  <path fill="#7FA5AD" d="M308.322 344.964C308.862 345.064 308.542 344.967 309.232 345.389C308.171 346.255 307.076 347.023 305.943 347.789L305.826 348.593C307.381 349.399 309.323 349.99 310.598 351.188C310.789 351.368 310.973 351.556 311.16 351.74C310.806 352.087 310.472 352.454 310.025 352.692C308.978 353.252 307.571 353.294 306.474 352.867C305.285 352.404 304.422 351.383 304.02 350.186C303.652 349.089 303.882 347.876 304.539 346.937C305.45 345.637 306.888 345.337 308.322 344.964Z"/>
  <path fill="#174165" d="M390.716 312.024C392.227 313.645 392.719 316.106 394.506 317.587C395.571 318.469 396.001 318.395 397.255 318.227C399.454 316.632 400.845 314.244 402.381 312.038C404.424 312.87 407.865 313.805 409.035 315.741C410.084 317.478 409.106 319.979 408.599 321.749L413 325.857C414.187 325.326 415.744 324.61 417.048 324.539C418.48 324.46 420.269 325.53 421.212 326.57C425.359 331.15 416.656 335.425 416.458 339.526C417.343 342.564 419.453 344.006 421.918 345.741C415.183 361.48 413.793 351.39 406.339 357.425C406.442 359.771 406.732 362.065 407.03 364.391C404.785 365.366 402.487 365.999 400.136 366.652C397.467 365.636 396.416 362.186 394.151 360.42L392.962 360.612C391.162 362.127 390.371 364.119 389.356 366.19C386.78 365.219 384.334 364.104 381.858 362.908C382.201 360.812 382.684 358.729 383.114 356.649L378.485 352.448L374.281 355.201C372.893 353.736 371.595 352.208 370.462 350.535C369.447 349.038 369.219 348.084 369.596 346.273C370.546 344.56 372.067 344.041 373.769 343.207C373.443 339.841 373.548 336.435 373.559 333.055L369.576 330.306C371.166 327.875 372.13 324.45 375.063 323.431C377.015 323.509 378.424 324.536 380.062 325.506L383.635 322.835C383.441 320.266 383.435 317.702 383.413 315.128L390.716 312.024Z"/>
  <path fill="#8DC3A3" d="M380.071 329.205C382.495 325.85 389.819 323.334 390.744 319.979L389.908 319.482C388.77 319.794 387.641 320.132 386.52 320.497L385.912 320.028C385.41 318.797 385.303 318.205 385.511 316.889L386.228 316.482L387.303 317.298C388.556 317.168 388.713 316.827 389.678 316.076L390.191 316.182L392.447 321.218C394.874 321.149 398.087 321.483 400.376 320.905C401.682 320.575 401.715 320.191 402.394 319.092C402.941 319.36 403.578 319.613 404.082 319.951C404.04 321.174 404.057 321.069 404.826 321.914C410.065 327.672 414.904 329.336 414.687 338.246C414.604 340.758 414.488 343.269 414.341 345.779C415.929 345.782 417.157 345.423 418.404 346.457C418.289 347.775 417.839 348.468 417.183 349.583C416.605 350.816 416.276 351.421 415.171 352.286C413.469 352.14 413.176 351.649 411.892 350.579C411.643 351.313 411.357 351.866 410.932 352.513C408.188 353.379 406.204 354.436 403.849 356.067C403.658 358.669 403.58 361.168 402.664 363.637L401.68 363.994C399.726 362.584 398.604 359.832 396.613 358.282C395.063 357.075 393.719 356.883 391.809 357.077C390.061 358.002 389.765 360.118 388.503 361.559C387.951 362.189 387.723 362.012 386.95 362.058C386.045 361.498 385.408 361.18 384.919 360.208C386.052 358.706 387.852 358.829 388.956 357.357C385.674 354.497 382.429 351.654 378.935 349.051C377.564 349.941 376.355 350.824 374.727 351.172C373.029 350.392 372.465 349.077 371.444 347.568L376.984 344.333C375.999 339.802 375.806 336.657 377.243 332.193C375.705 331.353 374.214 330.405 372.71 329.504C373.156 328.735 373.616 327.77 374.2 327.106C375.152 326.023 375.461 326.084 376.797 326.063C378.192 326.998 379.049 327.878 380.071 329.205Z"/>
  <path fill="#174165" d="M414.341 345.779C415.929 345.782 417.157 345.423 418.404 346.457C418.289 347.775 417.839 348.468 417.183 349.583C416.605 350.816 416.276 351.421 415.171 352.286C413.469 352.14 413.176 351.649 411.892 350.579C412.57 349.119 413.399 347.889 414.329 346.577L414.341 345.779Z"/>
  <path fill="#53A195" d="M414.341 345.779C415.929 345.782 417.157 345.423 418.404 346.457C418.289 347.775 417.839 348.468 417.183 349.583L414.329 346.577L414.341 345.779Z"/>
  <path fill="#53A195" d="M372.71 329.504C373.156 328.735 373.616 327.77 374.2 327.106C375.152 326.023 375.461 326.084 376.797 326.063C378.192 326.998 379.049 327.878 380.071 329.205L379.597 329.606C378.971 330.127 378.327 330.612 377.674 331.098L377.243 332.193C375.705 331.353 374.214 330.405 372.71 329.504Z"/>
  <path fill="#174165" d="M392.79 324.332C400.786 322.647 408.63 327.775 410.295 335.775C411.959 343.775 406.811 351.606 398.807 353.25C390.832 354.888 383.036 349.762 381.377 341.792C379.719 333.821 384.824 326.012 392.79 324.332Z"/>
  <path fill="#FDFDFD" d="M393.09 327.568C395.843 327.261 398.466 327.24 401.025 328.454C403.881 329.778 406.084 332.195 407.138 335.161C408.165 338.061 407.944 341.257 406.528 343.988C404.77 347.322 401.995 348.902 398.54 350.051C396.41 350.239 394.107 350.285 392.036 349.698C388.864 348.801 386.022 346.713 384.557 343.72C383.251 341.052 383.243 337.959 384.363 335.225C386.018 331.183 389.292 329.217 393.09 327.568Z"/>
  <path fill="#174165" d="M394.312 331.917C397.974 330.977 401.71 333.159 402.69 336.81C403.67 340.461 401.528 344.221 397.888 345.24C395.498 345.91 392.932 345.243 391.17 343.495C389.408 341.747 388.721 339.187 389.371 336.792C390.021 334.396 391.908 332.535 394.312 331.917Z"/>
  <path fill="#53A195" d="M394.621 334.306C396.861 333.501 399.334 334.635 400.185 336.857C401.036 339.08 399.954 341.575 397.749 342.472C396.282 343.069 394.607 342.826 393.37 341.837C392.132 340.848 391.527 339.267 391.787 337.704C392.046 336.142 393.131 334.842 394.621 334.306Z"/>
  <path fill="#8DC3A3" d="M402.394 319.092C402.513 317.602 402.514 316.65 403.554 315.469C404.932 315.303 404.892 315.43 406.03 316.26C406.59 317.477 406.758 317.669 406.551 318.971C405.519 319.859 405.446 319.857 404.082 319.951C403.578 319.613 402.941 319.36 402.394 319.092Z"/>
  <path fill="#174165" d="M488.018 178.881C488.914 179.011 488.436 178.849 489.375 179.549C490.565 184.889 489.72 192.052 489.67 197.622C490.706 197.58 491.76 197.519 492.796 197.573C494.007 197.636 494.733 197.995 495.562 198.884L495.233 199.793C493.532 200.943 491.627 200.761 489.651 200.803C489.657 205.258 490.992 216.47 488.49 219.667C485.16 220.376 474.701 213.094 471.244 211.084C464.811 207.468 457.621 204.046 451.961 199.298C456.783 196.044 462.129 193.334 467.188 190.453C474.078 186.528 480.921 182.422 488.018 178.881Z"/>
  <path fill="#FDFDFD" d="M485.529 183.886L485.967 184.065C487.313 187.106 486.351 210.911 486.317 215.887L469.218 205.827C465.523 203.84 461.939 201.611 458.328 199.474C467.304 194.134 476.519 189.178 485.529 183.886Z"/>
  <path fill="#174165" d="M532.444 697.363L533.341 697.592C536.248 701.14 533.435 711.115 534.633 715.949C536.444 716.238 538.68 716.442 540.006 717.73L539.566 718.536C538.169 719.513 535.944 719.322 534.266 719.391C534.297 723.392 534.992 728.199 534.156 732.092C533.86 733.472 533.532 733.897 532.4 734.69C528.503 734.786 522.76 730.128 519.478 728.076C513.984 724.507 508.53 720.855 502.868 717.555C512.512 710.551 522.735 704.31 532.444 697.363Z"/>
  <path fill="#3D6E81" d="M531.028 702.448C532.143 704.004 531.8 727.876 531.863 731.784C527.407 729.105 523.143 726.125 518.652 723.491C515.225 721.238 511.755 719.183 508.154 717.22C515.618 712.049 523.64 707.776 531.028 702.448Z"/>
  <path fill="#174165" d="M520.557 467.577L519.729 467.765C514.44 466.471 498.088 456.259 493.125 452.759C492.016 451.977 490.385 451.023 490.162 449.665C494.37 445.491 514.438 436.901 520.982 434.113C520.926 439.154 520.957 444.195 521.073 449.235C523.754 449.259 526.433 449.051 528.935 450.133L529.441 450.926C528.553 451.882 527.376 452.131 526.114 452.241C524.422 452.389 522.626 452.259 520.927 452.212C520.928 457.205 521.368 462.65 520.557 467.577Z"/>
  <path fill="#174165" d="M521.073 449.235C523.754 449.259 526.433 449.051 528.935 450.133L529.441 450.926C528.553 451.882 527.376 452.131 526.114 452.241C524.422 452.389 522.626 452.259 520.927 452.212C520.928 457.205 521.368 462.65 520.557 467.577C519.708 462.034 519.757 454.7 521.073 449.235Z"/>
  <path fill="#3D6E81" d="M 517.932 439.161 C 519.253 446.562 518.312 455.785 518.277 463.385 C 513.63 460.71 509.007 457.993 504.41 455.234 C 501.139 453.324 497.671 451.715 494.277 450.033 C 502.122 446.323 510.007 442.699 517.932 439.161 Z"/>
  <path fill="#174165" d="M568.126 449.208C569.096 449.166 569.294 449.218 570.145 449.573C570.256 450.721 570.322 450.285 570.026 451.343C569.953 451.605 569.858 451.86 569.789 452.123C569.736 452.324 569.702 452.529 569.659 452.732C568.497 453.729 567.712 453.495 566.212 453.561C565.399 453.441 564.466 453.367 563.688 453.114C562.376 452.688 562.17 452.516 561.542 451.389L562.121 450.491C563.995 449.21 565.937 449.319 568.126 449.208Z"/>
  <path fill="#174165" d="M542.964 197.659C545.531 197.531 548.323 197.094 550.774 197.98C551.684 199.135 551.56 199.126 551.408 200.607C548.74 200.686 545.744 201.105 543.212 200.169C542.505 199.068 542.707 198.965 542.964 197.659Z"/>
  <path fill="#174165" d="M546.488 716.078C546.584 716.083 546.68 716.089 546.776 716.092C547.748 716.12 548.846 716.075 549.789 716.327C551.225 716.711 551.988 717.313 552.602 718.588C551.982 719.386 551.564 719.33 550.625 719.626C549.144 719.675 547.369 719.852 545.96 719.389C544.676 718.967 544.466 718.776 543.957 717.624C544.676 716.705 545.423 716.489 546.488 716.078Z"/>
  <path fill="#174165" d="M529.805 197.644C532.204 197.605 535.312 197.158 537.484 198.303C537.975 199.547 537.803 199.375 537.375 200.532C534.946 200.585 531.647 201.12 529.424 200.038C529.045 198.824 529.231 198.803 529.805 197.644Z"/>
  <path fill="#0C2F55" d="M501.582 197.69C503.72 197.567 507.484 196.927 509.305 198.135C510.081 198.65 509.947 199.577 510.095 200.433C507.934 200.514 505.352 200.973 503.241 200.592C502.125 200.39 501.99 200.115 501.35 199.265L501.582 197.69Z"/>
  <path fill="#174165" d="M583.57 197.71C585.912 197.608 589.459 197.041 591.49 198.386C592.245 198.886 592.195 199.849 592.393 200.682C589.628 200.769 585.775 201.483 583.627 199.501L583.57 197.71Z"/>
  <path fill="#174165" d="M694.938 257.303C696.604 258.876 698.753 262.838 698.841 265.083C698.873 265.915 698.31 266.257 697.812 266.858C695.983 265.574 694.14 261.714 693.832 259.479C693.696 258.492 694.376 258.057 694.938 257.303Z"/>
  <path fill="#174165" d="M556.862 197.545C558.396 197.483 560.021 197.334 561.552 197.433C563.024 197.528 563.581 197.692 564.599 198.746L564.425 200.515C562.491 200.605 560.108 200.954 558.218 200.582C557.133 200.368 557.021 200.137 556.447 199.28L556.862 197.545Z"/>
  <path fill="#0C2F55" d="M516.353 197.743C518.626 197.623 521.794 197.134 523.842 198.252C524.126 199.441 524.003 199.401 523.364 200.465C520.804 200.55 517.44 200.971 515.301 199.473C515.366 198.371 515.591 198.466 516.353 197.743Z"/>
  <path fill="#174165" d="M547.896 450.105C550.325 449.869 554.384 448.995 556.516 450.395C557.204 450.847 557.133 451.7 557.292 452.45C554.925 452.596 550.527 453.343 548.493 452.056C547.838 451.642 547.988 450.809 547.896 450.105Z"/>
  <path fill="#174165" d="M678.724 235.227C680.646 236.214 683.054 238.299 683.966 240.32C684.577 241.672 684.2 241.983 683.695 243.321C681.789 242.582 679.467 239.86 678.607 237.995C677.993 236.663 678.213 236.546 678.724 235.227Z"/>
  <path fill="#174165" d="M569.576 197.715C571.811 197.674 575.583 196.855 577.497 198.149C578.216 198.634 578.145 199.617 578.309 200.414C576.031 200.393 572.222 201.315 570.269 199.981C569.565 199.499 569.695 198.501 569.576 197.715Z"/>
  <path fill="#174165" d="M591.799 445.555C592.978 445.423 593.573 445.342 594.637 445.909L594.541 446.887C592.603 448.497 590.964 448.748 588.572 449.194C587.524 449.105 586.805 448.76 585.862 448.311L585.793 447.646C587.529 446.414 589.762 446.075 591.799 445.555Z"/>
  <path fill="#174165" d="M700.56 666.71C701.765 667.317 701.943 667.212 702.375 668.466C701.773 670.823 699.982 672.659 698.499 674.538C697.359 674.054 697.284 674.087 696.712 673.004C697.267 670.68 699.17 668.622 700.56 666.71Z"/>
  <path fill="#174165" d="M586.513 453.566C588.954 453.311 592.764 452.882 594.842 454.368C595.658 454.952 595.483 455.724 595.624 456.653C593.671 456.771 590.526 456.63 588.704 455.957C587.092 455.362 587.164 455.099 586.513 453.566Z"/>
  <path fill="#174165" d="M686.636 246.235C687.402 246.345 687.902 246.506 688.613 246.782C690.377 248.617 692.754 251.437 692.748 254.106C691.174 253.969 690.586 253.729 689.497 252.57C687.885 250.854 686.567 248.633 686.636 246.235Z"/>
  <path fill="#174165" d="M668.518 226.749C670.441 226.808 672.289 228.004 673.677 229.286C675.061 230.564 675.402 231.418 675.446 233.279C673.442 233.113 671.607 231.889 670.192 230.487C668.844 229.15 668.587 228.613 668.518 226.749Z"/>
  <path fill="#174165" d="M672.664 398.828C673.468 399.792 673.645 400.011 673.878 401.232C672.968 403.495 670.853 405.073 669.103 406.712C668.436 405.924 668.084 405.542 667.995 404.495C668.886 402.118 670.871 400.553 672.664 398.828Z"/>
  <path fill="#174165" d="M606.906 716.626C609.174 716.458 611.655 715.993 613.821 716.795C614.61 717.938 614.408 718.042 614.185 719.437C611.901 719.565 609.531 719.924 607.337 719.165C606.525 718.065 606.708 718.003 606.906 716.626Z"/>
  <path fill="#174165" d="M581.073 447.716C582.171 447.607 582.449 447.556 583.447 447.991C583.458 448.642 583.538 448.452 582.789 449.143C581.308 450.508 578.021 450.548 576.092 450.676C574.864 450.47 574.551 450.447 573.596 449.674L574.096 448.978C576.424 448.034 578.602 447.91 581.073 447.716Z"/>
  <path fill="#0C2F55" d="M557.362 716.504C558.325 716.455 559.288 716.413 560.251 716.377C562.138 716.31 563.462 716.136 564.912 717.483L564.831 719.427C563.569 719.429 562.329 719.543 561.07 719.593C559.411 719.66 558.531 719.643 557.297 718.505L557.362 716.504Z"/>
  <path fill="#174165" d="M600.436 455.344C602.305 455.631 605.625 455.788 607.205 456.757C608.581 457.601 608.457 458.097 608.731 459.592C606.591 459.411 603.342 459.48 601.529 458.257C600.323 457.444 600.539 456.665 600.436 455.344Z"/>
  <path fill="#174165" d="M647.332 212.107C649.538 212.719 653.103 214.082 654.254 216.209C654.656 216.951 654.166 217.478 653.882 218.199C651.319 217.308 648.531 216.192 646.859 213.989L647.332 212.107Z"/>
  <path fill="#174165" d="M706.274 308.599C707.252 308.88 707.621 309.115 708.298 309.874C708.964 312.559 708.836 315.397 707.789 317.971L706.527 317.279C704.932 314.723 705.847 311.391 706.274 308.599Z"/>
  <path fill="#174165" d="M704.925 333.671C705.208 333.835 705.52 333.957 705.774 334.163C706.558 334.801 706.384 336.214 706.339 337.087C706.235 339.086 705.702 341.812 704.231 343.204C703.669 342.746 703.355 342.395 702.922 341.831C702.912 339.034 703.27 335.997 704.925 333.671Z"/>
  <path fill="#0C2F55" d="M593.919 716.608C595.43 716.511 596.946 716.407 598.46 716.367C600.01 716.327 600.957 716.389 602.08 717.479L601.876 719.217C599.258 719.291 596.428 720.142 594.194 718.493L593.919 716.608Z"/>
  <path fill="#174165" d="M626.847 433.941C627.652 434.258 627.821 434.55 628.359 435.202L628.148 436.096C626.324 437.658 624.103 438.364 621.898 439.24C621.216 439.074 621.051 438.765 620.557 438.287L620.66 437.542C622.411 435.891 624.702 434.985 626.847 433.941Z"/>
  <path fill="#174165" d="M646.972 471.809C647.156 471.824 647.342 471.827 647.525 471.856C649.714 472.195 652.48 473.328 653.779 475.184C654.434 476.12 653.987 476.65 653.755 477.694C651.623 476.764 648.765 475.809 647.272 473.972C646.573 473.112 646.863 472.853 646.972 471.809Z"/>
  <path fill="#174165" d="M679.87 390.269C680.067 390.333 680.28 390.36 680.461 390.461C680.933 390.727 681.504 391.188 681.488 391.762C681.425 393.877 678.437 396.314 677.035 397.749L675.925 397.047L675.761 395.86C676.665 393.612 678.27 392.041 679.87 390.269Z"/>
  <path fill="#174165" d="M704.011 282.288C704.614 282.808 704.969 283.273 705.337 284.004C706.558 286.421 706.83 289.736 705.828 292.235C705.127 291.795 704.605 291.429 704.208 290.678C702.828 288.069 703.026 284.965 704.011 282.288Z"/>
  <path fill="#0C2F55" d="M581.735 716.575C584.045 716.454 586.443 716.117 588.682 716.793C589.672 717.879 589.544 717.918 589.53 719.407C587.325 719.549 585.154 719.829 582.98 719.327C581.769 718.331 581.943 718.157 581.735 716.575Z"/>
  <path fill="#174165" d="M701.762 346.63C702.524 346.955 702.756 347.225 703.311 347.816C703.77 350.62 702.31 352.93 701.09 355.345C699.964 355.057 699.956 355.12 699.326 354.155C699.423 351.474 700.718 349.063 701.762 346.63Z"/>
  <path fill="#174165" d="M705.787 321.106L707.466 322.059C708.728 324.723 707.607 327.72 706.966 330.431C705.937 330.124 705.809 330.026 705.088 329.227C704.634 326.534 705.343 323.773 705.787 321.106Z"/>
  <path fill="#174165" d="M693.913 676.291C694.893 676.759 694.943 676.777 695.442 677.736C694.965 680.256 692.737 681.904 690.861 683.452C689.964 682.672 689.786 682.73 689.466 681.52C690.241 679.357 692.278 677.842 693.913 676.291Z"/>
  <path fill="#174165" d="M712.352 645.209C713.521 645.871 713.698 645.823 714.152 647.064C713.897 649.42 712.473 651.327 711.28 653.323L710.61 653.417C710.121 653.109 709.7 653.041 709.575 652.425C709.149 650.338 711.392 647.036 712.352 645.209Z"/>
  <path fill="#0C2F55" d="M569.479 716.599C571.984 716.621 575.348 715.807 577.371 717.501L577.382 719.225C575.917 719.371 574.446 719.526 572.976 719.609C571.457 719.696 570.712 719.518 569.583 718.515L569.479 716.599Z"/>
  <path fill="#174165" d="M596.951 198.489C598.962 198.515 601.918 198.285 603.754 199.133C605.198 199.8 605.212 200.05 605.714 201.47C603.348 201.723 599.541 202.021 597.527 200.568C596.847 200.077 597.032 199.266 596.951 198.489Z"/>
  <path fill="#174165" d="M706.735 656.709C707.94 657.182 708.048 657.062 708.561 658.228C708.082 660.573 706.355 662.564 705.011 664.506L703.766 663.953L703.422 662.782C704.004 660.474 705.425 658.66 706.735 656.709Z"/>
  <path fill="#174165" d="M635.4 207.288C637.327 207.406 640.016 208.119 641.618 209.247C642.979 210.205 643.075 210.777 643.419 212.373C641.056 211.819 637.954 211.409 636.11 209.732C635.256 208.956 635.495 208.387 635.4 207.288Z"/>
  <path fill="#174165" d="M699.132 270.63C700.106 270.736 700.659 270.852 701.493 271.374C703.07 273.846 703.63 276.316 703.536 279.232L701.979 278.704C700.067 276.312 699.693 273.553 699.132 270.63Z"/>
  <path fill="#174165" d="M716.586 634.155C717.32 634.451 717.545 634.615 718.104 635.132C718.466 638.036 717.106 640.163 715.814 642.669C715.031 642.253 714.714 641.907 714.214 641.18C714.115 638.472 715.318 636.475 716.586 634.155Z"/>
  <path fill="#174165" d="M705.136 295.628C706.175 295.81 706.347 295.736 707.204 296.432C708.38 299.205 708.241 301.501 707.704 304.417C707.011 304.227 706.607 304.03 705.994 303.679C704.928 301.144 705.131 298.33 705.136 295.628Z"/>
  <path fill="#174165" d="M635.947 713.088C637.23 713.301 637.622 713.24 638.557 714.113L638.294 714.858C636.44 716.198 634.87 716.495 632.643 716.905C631.535 716.874 631.502 717.097 630.666 716.274C630.84 715.747 630.818 715.688 631.214 715.18C632.298 713.785 634.33 713.402 635.947 713.088Z"/>
  <path fill="#174165" d="M657.847 704.942C658.952 705.045 658.96 704.997 659.715 705.799C658.734 708.172 656.125 709.088 653.901 710.068C653.094 709.686 652.951 709.426 652.435 708.726L652.663 707.825C654.136 706.386 655.985 705.746 657.847 704.942Z"/>
  <path fill="#174165" d="M720.578 622.786C721.255 623.568 721.543 624.237 721.496 625.302C721.387 627.756 720.381 629.832 718.617 631.494C717.768 630.39 717.53 629.711 717.67 628.316C717.903 625.993 718.843 624.294 720.578 622.786Z"/>
  <path fill="#174165" d="M573.991 452.143C576.347 451.841 580.483 451.142 582.365 452.819C583.043 453.423 582.868 454.195 582.952 455.044C580.474 454.798 577.018 454.804 574.83 453.663C574.108 453.287 574.201 452.865 573.991 452.143Z"/>
  <path fill="#174165" d="M601.603 443.083C603.227 443 603.794 442.818 605.243 443.625L605.43 444.581C604.365 445.79 603.713 445.843 602.204 446.327C601.824 446.411 601.36 446.521 600.982 446.569C599.664 446.738 599.562 446.746 598.557 445.965L598.578 444.917C599.593 443.713 600.155 443.619 601.603 443.083Z"/>
  <path fill="#174165" d="M714.755 551.25C715.767 551.277 716.39 551.308 717.293 551.786C718.944 554.053 719.162 556.048 718.97 558.796C717.982 558.811 717.827 558.752 716.966 558.259C715.56 556.149 715.257 553.696 714.755 551.25Z"/>
  <path fill="#174165" d="M621.113 715.644C621.984 715.561 622.894 715.453 623.768 715.502C624.927 715.568 625.856 715.936 626.616 716.824C626.034 718.025 625.604 717.883 624.413 718.367C622.952 718.626 621.431 719.031 620.003 718.45C618.965 718.027 619.171 718.047 618.762 717.152C619.546 716.126 619.955 716.127 621.113 715.644Z"/>
  <path fill="#174165" d="M677.243 692.375C677.808 692.508 678.242 692.855 678.73 693.158L678.899 694.257C677.836 695.993 676.149 696.975 674.517 698.128C673.747 698.033 673.411 697.77 672.762 697.369L672.67 696.29C673.86 694.578 675.56 693.556 677.243 692.375Z"/>
  <path fill="#174165" d="M676.577 492.866C677.26 492.845 677.495 492.803 678.22 492.957C679.579 493.246 681.451 494.805 682.188 495.953C683.041 497.284 682.879 497.459 682.587 498.947C680.92 498.88 679.868 498.086 678.727 496.932C677.555 495.748 676.598 494.592 676.577 492.866Z"/>
  <path fill="#174165" d="M700.457 518.372C701.915 519.259 702.992 520.696 703.789 522.196C704.663 523.843 704.606 524.708 704.023 526.444C702.506 525.443 700.392 523.269 699.869 521.474C699.402 519.871 699.626 519.716 700.457 518.372Z"/>
  <path fill="#174165" d="M658.636 218.953C660.96 219.786 664.153 221.363 665.277 223.69L664.573 225.106C664.244 225.032 663.907 224.988 663.587 224.883C661.579 224.226 659.186 222.326 658.16 220.492L658.636 218.953Z"/>
  <path fill="#174165" d="M647.077 422.342C647.919 422.656 648.023 422.835 648.572 423.508L648.402 424.473C646.984 426.156 645.146 427.061 643.265 428.139C642.281 427.433 642.204 427.628 641.878 426.369C642.993 424.486 645.249 423.463 647.077 422.342Z"/>
  <path fill="#174165" d="M655.098 415.816C656.448 416.043 656.78 415.774 657.632 416.919C656.9 418.684 654.907 419.928 653.454 421.113C652.6 421.51 652.251 421.518 651.333 421.54L651.067 420.536C652.083 418.522 653.459 417.295 655.098 415.816Z"/>
  <path fill="#0C2F55" d="M534.424 450.152C537 449.891 540.28 449.211 542.73 450.225C543.639 450.602 543.569 451.195 543.888 452.055C541.389 452.305 538.195 452.952 535.794 452.083C534.884 451.754 534.817 450.975 534.424 450.152Z"/>
  <path fill="#174165" d="M637.612 428.482C637.914 428.659 638.414 429.255 638.669 429.512L638.566 430.468C637.027 432.151 634.632 433.056 632.615 434.076L631.44 433.226L631.316 432.385C632.855 430.524 635.484 429.56 637.612 428.482Z"/>
  <path fill="#174165" d="M685.945 380.685C687.008 381.114 687.431 381.205 688.164 382.123C688.082 384.01 686.389 385.773 685.311 387.259C684.564 387.582 684.27 387.507 683.479 387.433L683.145 386.503C683.651 384.333 684.821 382.581 685.945 380.685Z"/>
  <path fill="#174165" d="M612.392 458.401C614.305 458.528 616.99 458.759 618.64 459.825C619.907 460.643 620.027 461.173 620.326 462.605C617.975 462.299 615.001 462.205 613.089 460.683C612.264 460.026 612.49 459.385 612.392 458.401Z"/>
  <path fill="#174165" d="M624.089 462.511C625.251 462.399 626.198 462.543 627.321 462.825C629.526 463.378 631.519 464.074 632.731 466.087C630.837 466.715 628.476 466.482 626.678 465.579C624.998 464.736 624.728 464.25 624.089 462.511Z"/>
  <path fill="#174165" d="M685.326 684.985C686.507 685.565 686.759 685.493 687.239 686.694C686.627 688.503 684.739 689.855 683.366 691.127C682.761 691.024 682.266 690.735 681.714 690.474L681.397 689.512C682.203 687.61 683.841 686.366 685.326 684.985Z"/>
  <path fill="#174165" d="M664.614 407.38C664.65 407.415 664.69 407.447 664.723 407.485C665.716 408.643 665.847 408.656 665.782 410.144C664.716 411.985 662.957 412.987 661.251 414.184C660.431 413.372 660.373 413.556 660.213 412.314C661.12 410.292 663.017 408.869 664.614 407.38Z"/>
  <path fill="#174165" d="M636.479 466.772C638.657 466.958 641.606 467.912 643.005 469.676C643.641 470.478 643.327 470.936 643.218 471.887C640.596 471.126 638.142 470.652 636.306 468.482L636.479 466.772Z"/>
  <path fill="#174165" d="M657.684 477.765C659.464 478.196 661.618 479.257 663.079 480.364C664.536 481.469 664.652 481.932 664.851 483.723C662.806 483.487 659.939 482.038 658.514 480.527C657.488 479.439 657.655 479.206 657.684 477.765Z"/>
  <path fill="#174165" d="M697.346 359.333C697.595 359.563 697.995 359.92 698.205 360.167C698.9 360.987 699.075 361.718 698.887 362.813C698.611 364.417 697.064 365.63 695.94 366.666C695.73 366.686 695.078 366.418 694.865 366.348L694.527 365.481C694.977 363.205 696.214 361.328 697.346 359.333Z"/>
  <path fill="#174165" d="M692.701 509.338C694.577 509.823 696.447 511.251 697.325 513.018C698.027 514.432 697.972 515.02 697.495 516.482C696.072 516.07 695.727 515.699 694.745 514.565C693.39 512.999 692.514 511.429 692.701 509.338Z"/>
  <path fill="#174165" d="M718.197 563.146C719.365 563.172 719.882 563.199 720.828 563.908C722.076 565.975 722.004 568.565 722.206 570.925C721.319 570.725 720.83 570.541 720.04 570.141C718.743 568.075 718.584 565.519 718.197 563.146Z"/>
  <path fill="#174165" d="M705.957 528.773L707.302 529.365C709.033 531.574 710.317 533.969 710.528 536.802C708.545 536.232 707.807 535.417 706.764 533.648C705.718 531.875 705.527 530.728 705.957 528.773Z"/>
  <path fill="#174165" d="M667.484 485.396C667.934 485.367 668.228 485.326 668.661 485.366C670.255 485.513 672.368 486.659 673.304 487.976C674.195 489.23 673.98 489.688 673.671 491.072C672.477 490.633 671.477 489.997 670.421 489.288C668.752 488.165 667.849 487.349 667.484 485.396Z"/>
  <path fill="#174165" d="M710.604 540.366C710.942 540.365 711.378 540.35 711.703 540.42C712.882 540.673 713.358 541.204 714.022 542.161C715.149 543.785 715.368 545.647 714.993 547.533L713.525 547.169C711.995 545.238 710.795 542.85 710.604 540.366Z"/>
  <path fill="#174165" d="M647.002 709.449C648.101 709.519 648.175 709.37 649.083 710.095L648.855 711.14C647.403 712.623 646.066 713.034 644.114 713.657C643.434 713.604 642.882 713.379 642.24 713.16L642.094 712.278C643.474 710.822 645.196 710.217 647.002 709.449Z"/>
  <path fill="#174165" d="M615.119 438.939L616.514 439.188L616.955 439.924L616.649 440.662C615.003 442.049 613.717 442.506 611.625 442.955C610.709 443.013 610.391 442.895 609.552 442.588L609.739 441.62C611.365 440.235 613.148 439.654 615.119 438.939Z"/>
  <path fill="#174165" d="M720.833 574.605C721.911 574.796 722.056 574.823 722.854 575.56C723.952 578.229 723.781 580.58 722.903 583.291L721.905 582.548C720.86 579.885 720.411 577.451 720.833 574.605Z"/>
  <path fill="#174165" d="M668.557 699.005C668.663 699.072 668.787 699.116 668.875 699.206C669.648 699.995 669.645 700.131 669.496 701.229C668.202 702.845 666.338 703.626 664.542 704.581C663.656 703.737 663.616 703.756 663.485 702.548C664.729 700.845 666.744 700.005 668.557 699.005Z"/>
  <path fill="#174165" d="M622.346 203.547C624.563 203.339 627.624 203.717 629.563 204.884C630.704 205.571 630.68 205.775 631.003 207C629.632 207.44 628.341 207.06 626.983 206.709C624.679 206.114 623.542 205.559 622.346 203.547Z"/>
  <path fill="#174165" d="M691.95 370.135L693.542 370.811L693.897 371.948C693.503 373.985 692.217 375.5 691.048 377.165L689.915 377.168L689.375 376.246C689.704 374.056 690.949 372.088 691.95 370.135Z"/>
  <path fill="#174165" d="M610.47 200.223C612.911 200.609 615.699 200.683 617.74 202.181L617.897 203.764C615.891 203.675 612.154 203.935 610.624 202.504C610.029 201.947 610.406 200.972 610.47 200.223Z"/>
  <path fill="#174165" d="M685.715 500.823C687.215 501.377 688.811 502.325 689.764 503.649C690.761 505.035 690.648 505.691 690.333 507.301C690.034 507.194 689.72 507.123 689.438 506.98C687.527 506.012 685.97 504.172 685.117 502.255L685.715 500.823Z"/>
  <path fill="#174165" d="M722.908 598.744L724.139 599.592C725.034 602.427 724.298 604.638 723.482 607.422C722.864 607.147 722.615 606.917 722.136 606.459C721.611 603.737 721.975 601.334 722.908 598.744Z"/>
  <path fill="#174165" d="M721.632 611.091C722.635 611.496 722.679 611.516 723.278 612.316C723.626 614.734 722.915 617.008 722.373 619.354C721.32 618.953 721.193 618.865 720.511 617.97C720.177 615.63 721.033 613.339 721.632 611.091Z"/>
  <path fill="#174165" d="M722.156 587.087C723.214 587.299 723.364 587.396 724.163 588.036C724.957 590.196 724.549 592.407 724.361 594.654C723.765 594.509 723.332 594.526 722.893 594.053C721.425 592.473 722.055 589.083 722.156 587.087Z"/>
  <path fill="#E2E4E4" d="M812.482 458L812.626 408.25C812.686 401.198 812.168 393.872 812.942 386.873L813.243 386.937C814.57 397.922 813.584 409.995 813.574 421.106C819.022 421.082 841.85 419.977 845.388 421.703C834.888 422.461 824.13 422.028 813.6 422.002L813.578 458.067C824.537 457.967 835.496 457.932 846.456 457.964C846.415 448.146 845.406 437.282 847.073 427.632C847.698 428.475 847.401 455.514 847.403 458.013C853.498 457.989 859.622 457.833 865.708 458.2L865.789 458.41L866.622 458.451C865.996 458.421 865.763 458.266 865.249 458.659C859.232 459.023 853.213 458.981 847.187 458.987C846.982 470.891 847.638 482.837 847.215 494.722C858.773 494.63 870.467 494.177 882.012 494.517C881.997 491.169 881.501 467.522 882.389 466.373C884.067 475.091 882.837 485.554 882.804 494.495C887.226 494.489 908.588 493.676 911.248 494.916C902.872 496.79 891.755 495.535 882.998 495.524L882.862 532.62C894.235 532.428 905.611 532.387 916.986 532.498C916.996 519.333 916.507 505.901 917.361 492.775L917.616 492.873C918.987 505.229 918.265 519.971 917.738 532.475L943.5 532.475C947.994 532.486 953.022 532.094 957.448 532.833C946.58 534.646 929.387 533.578 917.873 533.548C917.886 537.459 918.647 564.28 917.302 565.921C916.607 555.186 916.963 544.28 916.98 533.52L882.99 533.566L882.755 570.161C887.141 570.183 907.372 569.084 910.145 570.736C901.06 571.361 891.896 570.875 882.792 571.125C882.779 580.785 881.795 597.486 883.169 606.263C883.207 606.505 883.218 606.752 883.242 606.996C882.493 605.291 882.013 603.607 881.888 601.74C881.428 594.878 881.967 587.598 881.972 580.697L881.999 533.567C870.397 533.582 858.767 533.43 847.168 533.636C847.395 545.753 846.945 557.935 846.935 570.064C856.087 569.978 865.992 569.07 875.014 570.543C865.704 570.984 856.289 571.059 846.968 570.945C846.963 582.94 846.881 594.935 846.723 606.929C854.37 606.92 864.057 605.882 871.475 607.369L871.618 607.664C863.407 608.291 855.054 608.055 846.821 607.988C847.105 620.346 846.456 632.71 846.578 645.072C852.22 644.669 867.324 643.491 872.156 645.16C863.948 646.594 855.018 645.12 846.656 645.854C846.589 653.578 845.732 716.337 846.914 717.715C847.377 718.255 847.693 718.742 848.033 719.359L846.749 719.907C845.689 723.587 846.512 750.005 846.525 755.883C852.13 755.646 857.727 755.484 863.318 756.044C858.114 757.091 851.894 756.55 846.537 756.505C846.544 761.701 847.371 784.159 845.992 787.57C844.563 777.588 845.498 766.625 845.549 756.526L809.963 756.523C809.965 761.547 810.844 783.104 809.42 786.385C808.812 776.449 809.199 766.435 809.061 756.479C802.622 756.501 779.219 757.576 774.652 755.92L773.508 756.7C765.105 759.8 754.833 759.713 745.99 759.197C748.135 757.825 750.27 756.503 752.517 755.298C780.958 736.296 804.255 709.997 817.378 678.139C821.762 667.496 824.844 656.529 827.724 645.403L827.814 645.093C832.593 620.193 832.245 595.74 828.91 570.667L828.704 570.341C827.268 558.219 822.668 545.956 818.648 534.491L818.153 533.196C812.418 519.835 805.596 508.154 797.437 496.159L796.56 495.035C787.278 480.829 771.855 469.419 758.576 459.202L756.01 457.44C752.594 455.431 749.305 453.139 745.986 450.972L744.911 450.478C745.049 444.879 744.964 439.251 744.987 433.648L745.419 433.205C757.574 424.404 767.643 413.43 777.369 402.099L778.755 400.47C779.654 411.516 779.153 423.027 778.946 434.102C778.798 442.076 778.952 450.054 778.82 458.027L812.482 458Z"/>
  <path fill="#FDFDFD" d="M827.724 645.403C833.692 645.529 839.66 645.595 845.629 645.599L845.485 718.561C840.062 718.562 810.946 717.613 807.871 719.323L808.996 719.788C809.688 731.538 809.045 743.724 809.096 755.523C800.7 755.511 781.997 754.559 774.652 755.92L773.508 756.7C765.105 759.8 754.833 759.713 745.99 759.197C748.135 757.825 750.27 756.503 752.517 755.298C780.958 736.296 804.255 709.997 817.378 678.139C821.762 667.496 824.844 656.529 827.724 645.403Z"/>
  <path fill="#E2E4E4" d="M773.564 755.065C773.63 754.779 773.7 754.493 773.763 754.207C774.739 749.726 773.644 744.767 774.862 740.346C775.837 745.294 775.684 750.995 774.652 755.92L773.508 756.7C765.105 759.8 754.833 759.713 745.99 759.197C748.135 757.825 750.27 756.503 752.517 755.298C756.416 757.334 768.751 755.413 773.564 755.065Z"/>
  <path fill="#FDFDFD" d="M813.247 495.671C824.304 495.444 835.36 495.622 846.417 495.501L846.477 532.989C837.47 532.033 827.23 532.735 818.153 533.196C812.418 519.835 805.596 508.154 797.437 496.159C801.975 494.852 807.696 495.501 812.408 495.559C812.399 497.337 812.127 499.539 812.848 501.186C813.472 499.434 813.279 497.508 813.247 495.671Z"/>
  <path fill="#FDFDFD" d="M777.369 402.099C778.625 405.148 777.947 450.743 777.944 457.558C770.64 457.527 763.31 457.628 756.01 457.44C752.594 455.431 749.305 453.139 745.986 450.972L744.911 450.478C745.049 444.879 744.964 439.251 744.987 433.648L745.419 433.205C757.574 424.404 767.643 413.43 777.369 402.099Z"/>
  <path fill="#E2E4E4" d="M744.987 433.648L745.419 433.205C746.981 437.951 746.037 445.802 745.986 450.972L744.911 450.478C745.049 444.879 744.964 439.251 744.987 433.648Z"/>
  <path fill="#FDFDFD" d="M758.576 459.202C762.645 457.591 773.208 458.654 777.967 458.719C777.986 463.506 777.991 468.268 778.369 473.044C779.604 468.844 779.035 463.204 778.977 458.855C790.146 459.067 801.317 459.126 812.488 459.031L812.437 494.609C807.123 494.605 801.863 494.64 796.56 495.035C787.278 480.829 771.855 469.419 758.576 459.202Z"/>
  <path fill="#FDFDFD" d="M828.91 570.667C834.623 570.893 840.302 570.842 846.017 570.748L846.017 606.634C841.791 606.7 837.646 606.768 833.453 607.372C834.478 608.196 843.874 607.927 845.959 607.906L845.736 644.818C839.739 644.654 833.802 644.613 827.814 645.093C832.593 620.193 832.245 595.74 828.91 570.667Z"/>
  <path fill="#FDFDFD" d="M818.648 534.491C823.296 532.803 840.231 533.65 846.267 533.628C846.36 545.758 845.958 557.885 846.062 570.015C840.376 570.032 834.346 569.652 828.704 570.341C827.268 558.219 822.668 545.956 818.648 534.491Z"/>
  <path fill="#FDFDFD" d="M810.023 719.46L845.537 719.51L845.486 755.616C833.636 755.462 821.773 755.554 809.921 755.546C810.128 743.528 809.994 731.482 810.023 719.46Z"/>
  <path fill="#FDFDFD" d="M847.447 495.524L881.983 495.523L881.982 532.482C870.448 532.488 858.885 532.325 847.359 532.826L847.447 495.524Z"/>
  <path fill="#FDFDFD" d="M813.598 458.988C824.457 458.962 835.398 458.582 846.245 459.007L846.406 493.856C844.854 495.218 817.418 494.679 813.499 494.715L813.598 458.988Z"/>
  <path fill="#E2E4E4" d="M135.978 550.491C140.366 553.535 214.021 626.949 216.218 630.271L166.985 680.582C157.054 690.764 147.028 701.866 136.281 711.139C109.02 684.696 82.6749 657.36 55.6084 630.73C58.5686 625.905 64.1632 621.414 68.1735 617.409L100.346 585.875C112.232 574.166 123.544 561.611 135.978 550.491Z"/>
  <path fill="#FDFDFD" d="M135.456 606.272C138.868 607.727 156.351 626.109 160.239 629.984L136.33 654.566C133.276 653.822 115.311 634.128 111.473 630.229C117.562 622.854 128.393 613.399 135.456 606.272Z"/>
  <path fill="#FDFDFD" d="M162.161 632.282C165.351 634.441 168.434 638.251 171.147 641.022C176.234 646.278 181.405 651.452 186.657 656.543C178.748 664.663 170.694 672.792 162.435 680.557C155.892 676.344 144.071 662.811 138.001 656.755C145.856 648.404 153.911 640.243 162.161 632.282Z"/>
  <path fill="#FDFDFD" d="M135.82 658.86C141.075 661.844 154.921 677.88 160.198 683.117C152.369 691.219 144.308 699.022 136.706 707.349C128.545 701.269 119.07 690.375 111.674 682.957C119.855 675.118 127.292 666.291 135.82 658.86Z"/>
  <path fill="#FDFDFD" d="M109.018 632.278C112.148 633.727 129.561 652.728 134.04 656.799C125.812 664.339 118.157 672.499 110.041 680.164L109.664 680.346C109.301 680.293 108.912 680.331 108.575 680.188C106.895 679.475 87.9234 659.174 85.208 656.504C93.3237 648.614 101.061 640.329 109.018 632.278Z"/>
  <path fill="#FDFDFD" d="M188.563 606.758C191.908 607.969 208.549 626.106 212.654 629.892C204.406 637.624 197.337 646.961 188.641 654.156C180.417 648.103 171.462 637.664 164.002 630.28C172.115 622.363 180.302 614.522 188.563 606.758Z"/>
  <path fill="#FDFDFD" d="M161.52 580.799C164.199 581.528 183.096 600.812 186.975 604.192C179.182 612.145 171.22 620.053 162.811 627.357C160.699 627.16 140.953 607.15 137.937 604.129C145.246 595.965 153.688 588.494 161.52 580.799Z"/>
  <path fill="#FDFDFD" d="M110.28 580.296C112.714 582.088 115.03 585.093 117.204 587.287C122.666 592.887 128.234 598.381 133.907 603.767C125.889 612.069 117.544 620.084 109.352 628.215C101.423 620.151 92.9942 612.568 85.165 604.434C93.5785 596.463 101.664 588.035 110.28 580.296Z"/>
  <path fill="#FDFDFD" d="M135.895 553.893C144.19 561.682 151.986 570.167 159.946 578.305C152.188 586.222 144.335 594.045 136.389 601.772C128.061 594.261 120.14 586.144 112.045 578.366C119.948 570.163 127.898 562.005 135.895 553.893Z"/>
  <path fill="#FDFDFD" d="M83.3722 606.336C86.2178 608.589 88.8851 612.052 91.5008 614.664C96.6679 619.822 102.165 624.694 107.03 630.144C99.2016 637.968 91.9466 647.527 82.9989 654.025C78.3348 651.332 64.2634 635.226 59.4927 630.271L83.3722 606.336Z"/>
  <path fill="#E2E4E4" d="M96.3992 274.091C114.352 274.292 132.306 274.344 150.26 274.248C159.953 274.26 169.798 273.915 179.469 274.557C179.851 282.983 180.112 332.505 178.743 335.908C166.957 336.552 154.877 335.998 143.058 336.008C127.291 336.023 111.398 336.457 95.645 335.854C94.9338 325.232 95.567 314.169 95.5678 303.488C95.5686 294.52 94.9035 285.112 95.5387 276.185C95.6017 275.3 95.8688 274.784 96.3992 274.091Z"/>
  <path fill="#FDFDFD" d="M139.822 277.756C151.404 277.619 162.984 277.745 174.569 277.536C169.55 283.013 143.185 310.169 138.244 313.032L137.414 312.676C134.54 309.77 131.307 307.167 128.342 304.343C119.175 295.671 110.113 286.889 101.159 277.998C114.046 277.847 126.934 277.766 139.822 277.756Z"/>
  <path fill="#FDFDFD" d="M126.601 307.333C129.893 309.347 134.486 315.792 137.352 316.653C141.426 316.007 145.595 310.995 148.622 308.266C156.469 316.658 165.719 323.956 172.994 332.843L155.375 332.696C137.387 332.668 119.399 332.732 101.412 332.887C109.76 324.293 118.001 315.688 126.601 307.333Z"/>
  <path fill="#FDFDFD" d="M175.612 281.352C177.78 285.957 176.21 322.679 176.006 330.268C171.346 326.622 167.08 322.154 162.817 318.044L150.351 306.042C159.004 298.075 167.08 289.457 175.612 281.352Z"/>
  <path fill="#FDFDFD" d="M98.6916 280.803C103.851 283.702 118.313 299.795 124.24 304.976C120.125 309.517 115.848 313.908 111.416 318.142C107.413 322.373 103.515 326.809 98.9932 330.496C98.6627 313.947 98.7891 297.357 98.6916 280.803Z"/>
  <path fill="#E2E4E4" d="M852.003 337.478C868.757 337.638 885.511 337.663 902.265 337.554C909.713 337.536 917.587 337 924.994 337.594C926.168 337.688 926.926 337.985 927.947 338.553C928.484 339.372 928.815 339.604 928.83 340.63C928.847 341.746 928.739 342.155 928.133 343.08C925.621 346.911 921.386 350.343 918.152 353.589C912.791 358.968 907.482 364.486 902.456 370.182C910.001 378.979 916.348 389.023 922.898 398.576C925.154 401.76 930.28 407.626 930.535 411.392C930.626 412.738 930.369 413.144 929.496 414.13C928.403 415.362 927.118 415.398 925.569 415.493C916.401 416.057 906.918 415.111 897.699 415.22C887.466 415.401 877.23 415.487 866.995 415.481C863.1 415.499 858.843 415.963 854.983 415.6C853.873 415.495 853.18 415.206 852.354 414.472C850.115 408.676 851.795 347.697 852.003 337.478Z"/>
  <path fill="#FDFDFD" d="M916.261 340.494C911.288 345.527 906.485 350.744 901.464 355.724C892.066 365.045 882.323 373.932 873.05 383.401C868.116 388.44 862.358 393.407 857.99 398.898L858.269 399.738C858.425 399.76 858.58 399.806 858.738 399.805C860.278 399.796 861.809 398.451 862.932 397.511C868.276 393.041 872.942 387.291 877.904 382.364L918.012 342.563C919.88 340.74 921.04 339.544 923.797 339.594C924.943 340.281 924.918 340.255 925.315 341.531C924.974 342.884 924.541 343.853 923.623 344.923C921.848 346.993 919.581 348.726 917.646 350.665C913.075 355.245 908.649 359.989 904.179 364.669C898.999 369.909 893.602 374.937 888.421 380.178C882.774 385.891 877.465 391.721 871.501 397.124C870.078 398.414 868.486 399.843 868.381 401.835C869.607 401.687 869.991 401.609 870.963 400.767C873.527 398.546 875.689 395.424 878.122 392.97C885.388 385.639 892.708 378.6 900.609 371.958C907.85 382.39 923.921 402.401 928.147 412.975L878.358 413.379C870.44 413.372 862.437 413.611 854.535 413.113C853.966 403.382 854.468 393.487 854.417 383.729C854.34 369.228 853.874 354.74 854.043 340.237C874.782 339.954 895.525 340.04 916.261 340.494Z"/>
  <path fill="#E2E4E4" d="M866.482 401.046L866.756 401.351C864.9 404.509 861.41 407.331 858.797 409.932C858.056 409.191 858.284 409.642 858.146 408.561C860.457 405.476 863.24 403.109 866.482 401.046Z"/>
  <path fill="#174165" d="M720.787 851.219C725.488 851.01 730.376 851.178 734.981 852.206C744.813 854.403 754.391 861.228 759.672 869.815C764.715 878.015 765.997 888.549 763.739 897.858C761.286 907.977 754.641 915.939 745.827 921.225C741.279 923.441 736.814 924.789 731.769 925.363C724.912 926.143 713.678 926.731 708.069 922.052C705.97 920.301 705.545 916.13 705.367 913.53C704.728 904.2 705.232 894.499 705.215 885.134C705.199 876.769 704.319 867.629 705.636 859.406C705.942 857.499 706.413 856.26 707.717 854.844C711.234 851.021 716.003 851.408 720.787 851.219Z"/>
  <path fill="#8DC3A3" d="M714.512 854.65C718.175 854.493 721.841 854.381 725.506 854.524C736.32 854.945 746.153 858.777 753.569 866.843C759.459 873.248 762.214 881.484 761.819 890.143C761.338 900.7 755.784 909.038 748.212 915.99C747.714 916.371 747.206 916.739 746.689 917.093C738.784 922.48 725.776 924.514 716.477 922.613C712.403 921.781 710.39 920.416 708.139 916.969C707.827 908.832 706.778 863.003 708.931 858.38C709.977 856.136 712.344 855.363 714.512 854.65Z"/>
  <path fill="#174165" d="M 718.988 860.629 C 723.687 860.286 728.51 860.1 733.067 861.512 C 736.8 862.669 740.677 864.601 743.275 867.647 C 746.174 871.046 748.123 872.011 749.478 875.78 C 750.838 877.461 750.686 879.942 751.645 881.936 C 753.817 886.454 752.218 892.514 751.768 897.617 C 751.225 903.764 748.457 908.477 743.831 912.42 C 735.485 918.074 724.341 916.952 714.799 916.074 C 714.345 906.793 714.923 897.165 714.926 887.849 C 714.928 880.221 713.982 870.452 715.261 863.022 C 716.268 861.683 717.502 861.266 718.988 860.629 Z"/>
  <path fill="#FDFDFD" d="M 718.567 863.134 C 724.562 862.831 731.911 862.333 737.182 865.768 C 745.301 871.06 745.605 875.656 746.868 877.578 C 749.158 881.063 749.078 884.415 749.723 892.501 C 750.168 898.075 748.048 903.877 744.939 908.266 C 744.838 908.366 744.738 908.466 744.636 908.565 C 737.255 915.663 726.269 914.181 716.869 914.043 C 716.898 907.768 716.248 866.843 717.386 864.478 C 717.645 863.94 718.174 863.582 718.567 863.134 Z"/>
  <path fill="#174165" d="M 724.213 888.032 L 724.016 868.166 C 725.754 866.834 733.113 871.089 735.036 872.789 C 737.534 874.997 740.522 877.42 741.639 880.892 C 742.343 883.079 743.052 894.643 742.655 896.881 C 742.053 900.272 739.767 903.177 736.876 904.961 C 732.883 907.424 728.58 907.468 724.058 907.488 L 724.205 889.701 L 724.213 888.032 Z"/>
  <path fill="#0C2F55" d="M724.213 888.032L725.196 888.417C725.977 893.037 726.059 900.536 725.06 905.1L724.756 905.255C724.545 900.539 725.625 894.128 724.205 889.701L724.213 888.032Z"/>
  <path fill="#8DC3A3" d="M 725.676 871.181 C 729.553 871.053 736.829 874.953 739.767 885.307 C 740.26 887.045 739.975 892.844 739.682 894.6 C 739.178 897.617 738.481 900.028 736.775 902.184 C 733.146 904.675 730.196 904.962 725.932 905.127 L 725.676 871.181 Z"/>
  <path fill="#174165" d="M260.985 856.126C267.091 856.011 273.716 855.464 279.736 856.475C284.378 857.255 289.107 859.073 291.853 863.116C294.209 866.584 294.721 871.39 293.803 875.422C292.764 879.984 289.841 882.653 286.071 885.127C287.535 885.637 289.055 886.051 290.477 886.671C294.402 888.383 297.636 892.213 299.106 896.176C301.318 902.138 300.278 908.223 297.696 913.838C296.746 915.305 295.562 916.759 294.225 917.887C286.659 924.273 269.773 923.621 260.204 922.645C260.256 914.681 259.341 860.223 260.985 856.126Z"/>
  <path fill="#FDFDFD" d="M264.284 887.056C273.082 886.975 284.5 885.551 291.707 891.711C294.865 894.41 296.29 898.045 296.465 902.138C296.689 907.354 295.165 911.331 291.7 915.184C283.744 920.735 273.43 919.422 264.213 919.34C264.152 908.578 264.176 897.817 264.284 887.056Z"/>
  <path fill="#FDFDFD" d="M264.259 859.939C270.729 859.828 280.477 858.488 286.015 862.413C288.241 863.99 289.55 866.33 289.901 869.02C290.517 873.731 289.533 877.081 286.572 880.732C280.398 885.432 271.757 883.968 264.382 883.837C264.294 875.871 264.253 867.905 264.259 859.939Z"/>
  <path fill="#E2E4E4" d="M888.996 241.583C891.868 241.445 894.671 241.427 897.473 242.175C905.06 244.199 909.769 249.401 913.486 255.979C914.491 255.795 915.477 255.626 916.499 255.566C920.435 255.338 924.144 256.857 927.018 259.54C929.826 262.161 931.565 265.696 931.579 269.568C931.593 273.385 930.077 277.18 927.285 279.809C921.179 285.56 909.83 283.588 902.023 283.492C894.01 283.511 871.97 285.071 865.616 282.005C862.547 280.524 860.186 277.954 859.231 274.654C858.26 271.297 858.543 266.687 860.383 263.666C862.798 259.701 867.361 258.715 871.535 257.723C872.415 255.78 873.321 253.8 874.373 251.945C877.899 245.728 882.407 243.46 888.996 241.583Z"/>
  <path fill="#FDFDFD" d="M890.242 244.594C893.652 244.322 896.988 244.759 900.108 246.226C906.152 249.068 908.921 254.219 911.004 260.223C912.603 259.483 914.153 258.816 915.908 258.549C918.819 258.105 921.859 259.039 924.133 260.888C926.799 263.074 928.41 266.291 928.564 269.735C928.687 272.701 927.639 275.702 925.486 277.781C920.331 282.759 908.311 281.091 901.513 281.072C893.26 281.004 872.017 282.821 865.613 278.568C863.6 277.231 862.173 275.307 861.723 272.911C861.187 270.061 861.612 266.654 863.388 264.295C866.212 260.543 869.785 261.811 873.84 261.322C875.425 260.054 876.262 253.743 878.038 251.24C881.093 246.933 885.297 245.494 890.242 244.594Z"/>
  <path fill="#174165" d="M576.43 856.177C576.73 856.208 577.032 856.221 577.329 856.27C578.583 856.478 579.035 856.548 579.683 857.66C580.99 859.905 581.842 862.825 582.842 865.267C585.639 872.12 588.394 878.991 591.106 885.878C595.629 897.266 600.898 908.471 605.118 919.956C605.379 920.667 605.417 920.976 605.22 921.699C604.27 922.505 604.258 922.597 603.027 922.63C599.868 919.807 596.386 907.982 594.183 903.482L579.907 903.46L561.954 903.46C560.466 906.922 555.651 920.614 553.603 922.4C552.747 923.146 552.854 922.946 551.835 922.865C551.737 922.649 551.604 922.445 551.541 922.215C551.147 920.783 551.849 918.749 552.31 917.415C555.099 909.344 558.845 901.512 561.92 893.535C566.71 881.11 571.004 868.334 576.43 856.177Z"/>
  <path fill="#FDFDFD" d="M578.137 861.863C581.684 874.09 588.154 887.839 592.908 899.882C588.027 900.007 583.133 899.983 578.25 900.028L563.174 899.995C567.872 887.356 572.296 873.998 578.137 861.863Z"/>
  <path fill="#174165" d="M375.604 855.846C376.432 855.852 377.989 855.736 378.575 856.416C380.213 858.318 400.319 912.445 402.389 918.612C402.817 919.888 403.27 921.027 403.134 922.403C402.349 922.96 401.991 923.16 401.021 923.175C397.51 920.055 394.34 908.128 392.508 903.173L378.129 903.171L361.42 903.188C359.911 907.498 356.115 921.303 352.564 923.508L351.699 923.031C351.196 921.556 351.036 920.343 351.52 918.821C352.451 915.897 354.046 913.024 355.137 910.127C358.132 902.172 360.941 894.152 363.965 886.207C367.768 876.215 371.064 865.488 375.604 855.846Z"/>
  <path fill="#FDFDFD" d="M376.709 862.268C379.364 864.66 389.443 894.479 391.482 899.914L377.75 899.948L362.683 899.938C367.423 887.406 372.098 874.849 376.709 862.268Z"/>
  <path fill="#174165" d="M455.968 916.43C456.341 901.957 456.089 887.393 456.092 872.91C456.093 868.426 454.925 861.78 456.241 857.616C456.587 856.523 456.596 856.5 457.655 855.947L458.974 856.525C459.355 857.067 459.607 857.503 459.631 858.184C459.874 864.982 459.567 871.916 459.555 878.734L459.506 923.244L457.232 923.483C454.351 922.208 419.88 870.641 414.967 863.743L414.975 905.5C414.981 909.761 415.9 917.102 414.892 921.015C414.588 922.195 413.971 922.772 413.009 923.416L412.251 923.074C411.508 921.863 411.323 920.871 411.213 919.458C410.814 914.332 411.367 908.835 411.323 903.666C411.241 893.197 411.226 882.729 411.278 872.261C411.293 866.841 410.836 861.026 411.728 855.7C411.918 855.726 412.109 855.745 412.298 855.779C413.314 855.959 413.913 856.13 414.612 856.933C420.277 863.439 425.005 871.95 429.918 879.11C438.503 891.621 447.473 903.862 455.968 916.43Z"/>
  <path fill="#E2E4E4" d="M119.532 165.884C122.975 168.903 124.531 173.881 126.136 178.034C130.726 178.141 135.036 178.508 139.446 179.855C136.436 182.875 133.474 185.929 130.175 188.639C130.679 191.857 132.761 199.286 130.865 201.961C130.691 201.986 130.519 202.035 130.344 202.036C127.484 202.05 123 197.892 120.723 196.171C116.845 196.903 113.294 201.679 109.137 201.539L108.409 200.719C107.748 196.882 109.073 192.676 109.875 188.928C106.122 186.31 102.923 182.821 99.8425 179.467C104.278 178.497 108.977 178.33 113.498 177.931C115.244 173.76 116.844 169.555 119.532 165.884Z"/>
  <path fill="#FDFDFD" d="M119.788 171.811C121.935 173.842 123.348 178.143 124.924 180.795C127.149 180.635 129.724 180.098 131.721 181.267L131.92 182.332C130.748 184.623 128.481 186.34 126.617 188.08C127.371 191.181 127.887 194.153 128.193 197.331C125.283 195.99 122.437 194.156 119.214 193.827C116.482 194.813 114.048 196.472 111.587 197.991C112.016 194.556 112.406 191.117 112.757 187.674C110.026 185.784 107.859 183.534 105.57 181.15C108.741 181.258 111.921 181.041 115.089 180.902C116.77 177.953 118.236 174.833 119.788 171.811Z"/>
  <path fill="#E2E4E4" d="M884.067 446.268C885.272 446.369 885.826 446.72 886.708 447.487C895.226 454.894 902.979 463.756 910.979 471.769C931.373 492.197 951.413 512.987 972.028 533.191C942.225 564.756 911.174 595.131 880.789 626.127C880.549 626.521 880.136 626.772 879.78 627.059L878.663 626.87L878.321 625.877C878.585 625.021 878.874 624.456 879.496 623.801C892.139 610.49 905.443 597.759 918.421 584.78C935.281 567.938 951.795 550.751 967.95 533.232C957.63 520.066 885.67 453.595 884.067 446.268Z"/>
  <path fill="#E2E4E4" d="M943.418 623.364C948.122 628.17 957.737 647.97 961.621 655.071C955.835 655.231 950.001 655.058 944.211 655.02C938.016 655.082 931.82 655.055 925.625 654.939C928.645 646.633 938.367 631.294 943.418 623.364Z"/>
  <path fill="#FDFDFD" d="M943.392 629.393C948 634.207 953.242 645.75 956.427 651.999L944.625 652.083C939.858 652.129 935.09 652.097 930.323 651.984C934.403 644.284 938.574 636.663 943.392 629.393Z"/>
  <path fill="#174165" d="M658.945 855.796C659.661 855.996 660.191 856.294 660.841 856.647C662.555 860.04 661.558 881.769 661.562 886.654C666.088 882.696 691.228 856.876 693.981 856.599C695.184 857.106 695.229 857.067 695.818 858.221C695.408 860.004 669.457 884.269 665.902 887.702C672.489 894.76 679.847 901.303 686.75 908.073C689.36 910.692 696.083 916.236 697.706 919.029C698.394 920.211 698.271 920.985 698.02 922.265L697.112 922.752C695.42 922.325 665.649 892.721 661.841 889.257C661.151 896.94 663.183 917.81 660.207 922.803L659.26 923L658.295 921.685C657.316 912.345 658.196 902.29 658.178 892.877C658.157 881.517 657.329 869.576 658.151 858.286C658.225 857.271 658.459 856.668 658.945 855.796Z"/>
  <path fill="#E2E4E4" d="M923.126 704.835C925.812 707.306 927.814 713.063 929.46 716.389C933.528 716.573 937.598 716.892 941.666 717.11C938.776 720.064 935.703 722.762 932.589 725.472C933.066 729.732 933.612 733.984 934.227 738.227C930.661 736.416 927.422 734.028 923.819 732.255C920.032 734.171 916.408 736.541 912.699 738.625C913.55 734.157 914.49 729.8 915.738 725.423C913.471 723.616 910.359 721.844 908.536 719.616C907.811 718.73 907.984 719.182 908.094 718.005C910.943 716.45 915.041 716.43 918.249 716.001C920.584 712.365 921.909 708.938 923.126 704.835Z"/>
  <path fill="#FDFDFD" d="M923.401 711.833C925.229 713.292 926.374 716.572 927.428 718.667L935.919 718.809C933.525 720.924 931.011 722.769 928.709 725.011C929.432 727.512 929.942 730.092 930.523 732.63L924.561 729.128C921.851 730.007 919.13 731.506 916.533 732.708L917.123 730.258C917.448 728.939 918.155 727.065 917.862 725.706C917.219 722.724 914.085 721.096 911.868 719.303C914.357 718.833 916.855 718.537 919.368 718.238L923.401 711.833Z"/>
  <path fill="#174165" d="M484.218 855.628C489.23 855.122 493.985 855.3 498.479 857.882C500.192 858.867 501.692 859.966 502.253 861.932L501.571 862.863C497.557 863.925 492.918 858.311 487.948 858.673C483.74 858.98 480.194 860.797 477.583 864.116C475.764 866.427 474.46 869.354 474.936 872.347C476.33 881.109 488.688 885.853 495.141 890.673C499.822 894.169 504.51 898.87 505.247 904.942C505.772 909.267 504.059 913.711 501.335 917.033C497.391 921.843 492.18 922.837 486.344 923.499C480.84 923.242 475.712 921.919 471.727 917.9C470.555 916.719 469.942 915.844 469.959 914.171C472.772 913.549 478.966 918.256 481.534 919.625C484.225 921.059 489.177 919.996 491.932 919.085C495.826 917.796 498.522 915.559 500.278 911.791C508.298 894.577 476.434 888.796 471.88 875.55C470.601 871.827 471.303 867.667 473.065 864.221C475.425 859.608 479.41 857.148 484.218 855.628Z"/>
  <path fill="#174165" d="M310.996 856.332C317.804 855.835 324.676 856.161 331.5 856.087C334.38 856.056 337.456 855.623 340.304 855.898C342.065 856.068 343.801 856.697 344.957 858.062L344.657 858.837C339.086 861.137 321.219 859.901 314.494 859.926C314.451 868.785 314.479 877.643 314.576 886.502C314.406 887.732 314.154 888.934 314.378 890.171C314.878 899.765 314.479 909.566 314.49 919.184C318.997 919.268 342.751 918.327 345.009 919.531C345.227 920.709 345.209 920.854 344.758 921.965C343.942 922.524 343.257 922.886 342.274 923.005C339.603 923.331 336.612 922.807 333.889 922.813C326.262 922.83 318.643 922.958 311.015 922.856C310.539 914.504 310.884 905.954 310.889 897.583L310.996 856.332Z"/>
  <path fill="#E2E4E4" d="M835.06 164.422C841.37 163.245 847.457 167.35 848.731 173.642C850.004 179.933 845.993 186.082 839.722 187.452C835.579 188.357 831.269 186.96 828.446 183.795C825.623 180.631 824.724 176.19 826.094 172.177C827.464 168.163 830.891 165.2 835.06 164.422Z"/>
  <path fill="#FDFDFD" d="M835.579 167.345C840.264 166.503 844.77 169.539 845.75 174.198C846.729 178.857 843.827 183.45 839.199 184.565C836.082 185.317 832.803 184.314 830.64 181.947C828.476 179.581 827.771 176.225 828.798 173.188C829.826 170.151 832.423 167.913 835.579 167.345Z"/>
  <path fill="#E2E4E4" d="M82.1444 443.858C84.505 446.382 86.0475 450.602 87.5644 453.734C89.8735 453.791 92.338 453.707 94.6151 454.086C95.7978 454.282 96.0337 454.201 96.7158 455.235C95.7368 457.514 93.3462 459.359 91.7634 461.301L90.9914 467.203C91.8764 468.809 92.626 470.101 92.3327 471.926C90.003 472.84 85.3842 469.543 83.0076 468.689L82.5033 468.513C79.1896 470.056 76.3263 472.416 72.9058 473.921C73.3682 470.064 74.0778 466.696 75.3787 463.037C73.3801 461.402 69.5175 458.946 68.9792 456.299C68.8191 455.511 69.2797 455.304 69.7371 454.736C72.2125 453.703 75.0919 454.003 77.7381 454.002C79.0796 450.538 80.4277 447.155 82.1444 443.858Z"/>
  <path fill="#FDFDFD" d="M82.1944 450.264C82.8095 450.938 83.2642 451.509 83.6995 452.32C84.235 453.317 84.7274 454.563 85.583 455.337C87.5763 457.14 91.0778 456.593 93.6217 456.586C91.7215 458.144 89.7014 459.389 87.6097 460.663C88.2006 462.536 89.4003 465.206 88.7595 467.113C86.8027 467.845 84.4622 466.44 82.5855 465.669C80.4919 466.724 78.4689 467.991 76.4331 469.158C76.8057 466.706 77.4238 464.378 78.0831 461.995C75.8622 460.329 73.8717 458.552 71.8582 456.649L79.3281 456.43C80.4356 454.475 81.2758 452.316 82.1944 450.264Z"/>
  <path fill="#174165" d="M509.013 856.192C514.672 856.041 549.743 855.326 552.405 856.605C552.763 856.777 553.011 857.119 553.314 857.376C553.309 858.54 553.057 858.516 552.345 859.374C549.096 861.066 536.944 859.979 532.845 859.968C532.616 874.026 532.849 888.125 532.861 902.187C532.831 907.728 533.726 914.201 532.867 919.606C532.643 921.018 532.142 921.791 531.016 922.622L530.157 922.289C528.172 918.887 529.395 869.14 529.414 859.934C524.351 859.881 513.461 861.304 509.363 859.174C508.805 857.945 508.894 857.558 509.013 856.192Z"/>
  <path fill="#174165" d="M615.152 855.715C616.472 855.864 617.273 855.865 618.349 856.717C619.518 862.753 618.671 870.261 618.66 876.475C618.59 890.628 618.599 904.781 618.686 918.934C626.421 919.043 642.759 917.822 649.335 919.288C650.155 920.514 649.93 920.991 649.846 922.432C638.318 922.966 626.53 922.673 614.984 922.484C614.915 900.761 614.102 877.219 615.152 855.715Z"/>
  <path fill="#E2E4E4" d="M66.1358 737.313C71.5942 736.852 76.4196 740.84 76.9948 746.287C77.5701 751.735 73.6841 756.643 68.2497 757.332C64.6318 757.79 61.0487 756.257 58.8832 753.322C56.7177 750.388 56.3084 746.512 57.8133 743.19C59.3182 739.868 62.5019 737.62 66.1358 737.313Z"/>
  <path fill="#FDFDFD" d="M64.6927 740.636C68.3831 739.408 72.3732 741.387 73.6296 745.068C74.8861 748.749 72.9385 752.754 69.2675 754.039C65.5561 755.338 61.4971 753.364 60.2268 749.643C58.9566 745.921 60.9616 741.878 64.6927 740.636Z"/>
  <path fill="#B5C3CB" d="M63.8136 532.172C71.7482 531.795 79.7983 532.194 87.7458 532.234L124.706 532.248L158.794 532.332C165.109 532.329 171.596 532.018 177.894 532.393C179.535 532.491 179.974 532.34 181.208 533.407C174.356 534.577 166.528 533.882 159.542 533.873L117.79 533.754L81.0363 533.825C75.8856 533.834 69.4577 534.587 64.4411 533.614L63.8136 532.172Z"/>
  <path fill="#E2E4E4" d="M113.493 511.55C118.477 511.462 178.654 511.018 179.748 511.625C180.024 511.778 180.215 512.05 180.448 512.262L180.309 513.897C163.792 514.144 147.258 513.89 130.738 513.995C127.359 514.016 117.514 515.045 114.839 514.281C114.455 514.172 114.183 513.826 113.855 513.598L113.493 511.55Z"/>
  <path fill="#174165" d="M314.576 886.502C318.437 886.498 340.876 885.776 342.641 887.04C342.961 888.104 342.968 888.254 342.677 889.325C339.909 891.337 318.975 890.154 314.378 890.171C314.154 888.934 314.406 887.732 314.576 886.502Z"/>
  <path fill="#174165" d="M905.103 789.235L905.923 789.763C906.016 791.223 906.195 791.654 905.429 792.94C901.024 795.053 893.043 793.831 888.072 793.849C887.685 793.747 887.371 793.461 887.037 793.239C886.861 791.867 886.72 791.517 887.291 790.282C891.385 788.042 900.477 789.295 905.103 789.235Z"/>
  <path fill="#E2E4E4" d="M177.035 414.6C177.916 414.995 178.479 415.483 179.188 416.132L179.145 416.894C174.066 418.482 139.828 417.406 131.875 417.387C130.846 417.344 130.955 417.478 130.06 416.779C132.344 413.35 169.558 418.658 177.035 414.6Z"/>
  <path fill="#B5C3CB" d="M135.108 493.199C142.117 493.342 176.863 492.598 180.145 493.666L180.315 494.657C173.613 494.908 139.284 496.107 135.487 494.566L135.108 493.199Z"/>
  <path fill="#174165" d="M112.506 789.095C116.192 789.177 120.127 788.205 123.606 789.553C124.768 791.081 124.451 792.069 124.46 793.954C120.694 793.872 116.71 794.897 113.172 793.431C112.139 791.918 112.466 790.897 112.506 789.095Z"/>
  <path fill="#E2E4E4" d="M146.166 400.732C150.683 399.976 170.164 399.752 173.886 401.249C169.288 401.794 149.397 402.547 146.166 400.732Z"/>
  <path fill="#E2E4E4" d="M177.901 400.413L178.309 401.14C175.703 404.111 172.532 407.063 171.432 410.938C171.015 409.926 170.727 409.11 170.925 407.997C171.472 404.927 175.651 402.227 177.901 400.413Z"/>
  <path fill="#E2E4E4" d="M789.938 384.77C795.154 384.157 800.998 384.215 806.24 384.584L806.771 385.257C801.647 385.834 795.347 385.924 790.235 385.304L789.938 384.77Z"/>
  <path fill="#E2E4E4" d="M143.068 399.136L143.271 399.81C141.457 401.369 139.535 402.867 137.99 404.699L138.241 405.961C138.918 406.726 139.619 407.439 140.03 408.39C140.098 408.546 140.141 408.712 140.196 408.873C139.319 408.955 138.441 408.341 137.642 407.973C137.219 406.92 136.903 406.133 137.239 404.996C138.142 401.933 140.369 400.437 143.068 399.136Z"/>
  <path fill="#E2E4E4" d="M147.704 710.989L147.779 711.469C147.02 713.467 144.442 715.935 142.851 717.362C142.623 717.25 142.499 716.996 142.343 716.796C144.074 714.796 145.768 712.797 147.704 710.989Z"/>
  <path fill="#E2E4E4" d="M93.2637 735.402L93.4078 736.508C92.4087 738.232 90.9229 739.245 89.3759 740.448L89.2879 739.585C90.2135 737.898 91.847 736.674 93.2637 735.402Z"/>
  <path fill="#E2E4E4" d="M200.36 727.657C202.981 728.368 203.852 730.1 205.389 732.236C205.202 732.211 205.013 732.198 204.829 732.16C202.756 731.736 201.506 729.28 200.36 727.657Z"/>
  <path fill="#E2E4E4" d="M189.329 715.816C191.621 716.648 192.934 718.463 194.535 720.21C194.23 720.158 193.616 720.063 193.338 719.973C191.397 719.349 190.323 717.458 189.329 715.816Z"/>
  <path fill="#E2E4E4" d="M157.848 699.231C158.407 699.381 158.071 699.251 158.784 699.771C157.931 701.168 157.014 702.479 156.045 703.798L155.228 703.386C155.415 701.887 156.917 700.409 157.848 699.231Z"/>
  <path fill="#E2E4E4" d="M120.074 706.921C120.494 707.336 120.312 707.052 120.402 707.877C119.524 709.342 118.542 710.066 117.161 711.048L116.791 710.672C117.416 709.18 118.909 708.045 120.074 706.921Z"/>
  <path fill="#E2E4E4" d="M178.775 705.475C180.912 706.494 182.594 708.143 183.912 710.081C181.793 709.268 180.058 707.292 178.775 705.475Z"/>
  <path fill="#E2E4E4" d="M875.611 458.244C877.121 457.786 878.663 457.945 880.166 458.298C878.783 458.699 877.707 458.946 876.25 458.975L875.611 458.244Z"/>
  <path fill="#3D6E81" d="M 486.299 182.499 C 487.981 193.479 486.782 207.163 486.738 218.438 C 480.815 214.468 474.925 210.438 469.066 206.343 C 464.895 203.51 460.478 201.126 456.152 198.629 C 466.148 193.124 476.2 187.749 486.299 182.499 Z" style="stroke-width: 1;"/>
</svg>